<?xml version="1.0" encoding="UTF-8" standalone="no"?>
<!DOCTYPE svg PUBLIC "-//W3C//DTD SVG 1.1//EN"
 "http://www.w3.org/Graphics/SVG/1.1/DTD/svg11.dtd">
<!-- Generated by graphviz version 2.47.0 (20210316.0004)
 -->
<!-- Title: dependencies Pages: 1 -->
<svg width="1206pt" height="284pt"
 viewBox="0.00 0.00 1206.00 284.00" xmlns="http://www.w3.org/2000/svg" xmlns:xlink="http://www.w3.org/1999/xlink">
<g id="graph0" class="graph" transform="scale(1 1) rotate(0) translate(4 280)">
<title>dependencies</title>
<polygon fill="white" stroke="transparent" points="-4,4 -4,-280 1202,-280 1202,4 -4,4"/>
<text text-anchor="start" x="578.01" y="-42.4" font-family="Times-12" font-weight="bold" font-size="14.00">Legend</text>
<polygon fill="#ffffb3" stroke="transparent" points="365,-10 365,-30 385,-30 385,-10 365,-10"/>
<text text-anchor="start" x="388.63" y="-15.4" font-family="Times-12" font-size="14.00"> &#160;Declarations</text>
<polygon fill="#8dd3c7" stroke="transparent" points="478,-10 478,-30 498,-30 498,-10 478,-10"/>
<text text-anchor="start" x="501.73" y="-15.4" font-family="Times-12" font-size="14.00"> &#160;Module</text>
<polygon fill="#80b1d3" stroke="transparent" points="564,-10 564,-30 584,-30 584,-10 564,-10"/>
<text text-anchor="start" x="587.78" y="-15.4" font-family="Times-12" font-size="14.00"> &#160;Bootstrap</text>
<polygon fill="#fdb462" stroke="transparent" points="661,-10 661,-30 681,-30 681,-10 661,-10"/>
<text text-anchor="start" x="684.67" y="-15.4" font-family="Times-12" font-size="14.00"> &#160;Providers</text>
<polygon fill="#fb8072" stroke="transparent" points="757,-10 757,-30 777,-30 777,-10 757,-10"/>
<text text-anchor="start" x="780.73" y="-15.4" font-family="Times-12" font-size="14.00"> &#160;Exports</text>
<g id="clust1" class="cluster">
<title>cluster_SharedModule</title>
<polygon fill="none" stroke="black" stroke-dasharray="1,5" points="8,-70 8,-268 1190,-268 1190,-70 8,-70"/>
</g>
<g id="clust9" class="cluster">
<title>cluster_SharedModule_exports</title>
<polygon fill="none" stroke="black" points="486,-208 486,-260 772,-260 772,-208 486,-208"/>
</g>
<g id="clust8" class="cluster">
<title>cluster_SharedModule_imports</title>
<polygon fill="none" stroke="black" points="776,-78 776,-130 1182,-130 1182,-78 776,-78"/>
</g>
<g id="clust2" class="cluster">
<title>cluster_SharedModule_declarations</title>
<polygon fill="none" stroke="black" points="16,-78 16,-130 768,-130 768,-78 16,-78"/>
</g>
<!-- TruncatePipe -->
<g id="node1" class="node">
<title>TruncatePipe</title>
<polygon fill="#ffffb3" stroke="black" points="760.14,-122 669.86,-122 669.86,-86 760.14,-86 760.14,-122"/>
<text text-anchor="middle" x="715" y="-99.8" font-family="Times,serif" font-size="14.00">TruncatePipe</text>
</g>
<!-- SharedModule -->
<g id="node6" class="node">
<title>SharedModule</title>
<polygon fill="#8dd3c7" stroke="black" points="694.42,-187 691.42,-191 670.42,-191 667.42,-187 595.58,-187 595.58,-151 694.42,-151 694.42,-187"/>
<text text-anchor="middle" x="645" y="-164.8" font-family="Times,serif" font-size="14.00">SharedModule</text>
</g>
<!-- TruncatePipe&#45;&gt;SharedModule -->
<g id="edge1" class="edge">
<title>TruncatePipe&#45;&gt;SharedModule</title>
<path fill="none" stroke="black" d="M681.95,-122.11C681.95,-122.11 681.95,-140.99 681.95,-140.99"/>
<polygon fill="black" stroke="black" points="678.45,-140.99 681.95,-150.99 685.45,-140.99 678.45,-140.99"/>
</g>
<!-- InlineLoaderComponent -->
<g id="node2" class="node">
<title>InlineLoaderComponent</title>
<polygon fill="#ffffb3" stroke="black" points="651.63,-122 498.37,-122 498.37,-86 651.63,-86 651.63,-122"/>
<text text-anchor="middle" x="575" y="-99.8" font-family="Times,serif" font-size="14.00">InlineLoaderComponent</text>
</g>
<!-- InlineLoaderComponent&#45;&gt;SharedModule -->
<g id="edge2" class="edge">
<title>InlineLoaderComponent&#45;&gt;SharedModule</title>
<path fill="none" stroke="black" d="M623.8,-122.11C623.8,-122.11 623.8,-140.99 623.8,-140.99"/>
<polygon fill="black" stroke="black" points="620.3,-140.99 623.8,-150.99 627.3,-140.99 620.3,-140.99"/>
</g>
<!-- DriveOutComponent -->
<g id="node3" class="node">
<title>DriveOutComponent</title>
<polygon fill="#ffffb3" stroke="black" points="480.2,-122 345.8,-122 345.8,-86 480.2,-86 480.2,-122"/>
<text text-anchor="middle" x="413" y="-99.8" font-family="Times,serif" font-size="14.00">DriveOutComponent</text>
</g>
<!-- DriveOutComponent&#45;&gt;SharedModule -->
<g id="edge3" class="edge">
<title>DriveOutComponent&#45;&gt;SharedModule</title>
<path fill="none" stroke="black" d="M413,-122.03C413,-138.4 413,-160 413,-160 413,-160 585.51,-160 585.51,-160"/>
<polygon fill="black" stroke="black" points="585.51,-163.5 595.51,-160 585.51,-156.5 585.51,-163.5"/>
</g>
<!-- BillingComponent -->
<g id="node4" class="node">
<title>BillingComponent</title>
<polygon fill="#ffffb3" stroke="black" points="328.23,-122 207.77,-122 207.77,-86 328.23,-86 328.23,-122"/>
<text text-anchor="middle" x="268" y="-99.8" font-family="Times,serif" font-size="14.00">BillingComponent</text>
</g>
<!-- BillingComponent&#45;&gt;SharedModule -->
<g id="edge4" class="edge">
<title>BillingComponent&#45;&gt;SharedModule</title>
<path fill="none" stroke="black" d="M268,-122.11C268,-141.34 268,-169 268,-169 268,-169 585.71,-169 585.71,-169"/>
<polygon fill="black" stroke="black" points="585.71,-172.5 595.71,-169 585.71,-165.5 585.71,-172.5"/>
</g>
<!-- PageNotFoundComponent -->
<g id="node5" class="node">
<title>PageNotFoundComponent</title>
<polygon fill="#ffffb3" stroke="black" points="189.82,-122 24.18,-122 24.18,-86 189.82,-86 189.82,-122"/>
<text text-anchor="middle" x="107" y="-99.8" font-family="Times,serif" font-size="14.00">PageNotFoundComponent</text>
</g>
<!-- PageNotFoundComponent&#45;&gt;SharedModule -->
<g id="edge5" class="edge">
<title>PageNotFoundComponent&#45;&gt;SharedModule</title>
<path fill="none" stroke="black" d="M107,-122.29C107,-144.21 107,-178 107,-178 107,-178 585.35,-178 585.35,-178"/>
<polygon fill="black" stroke="black" points="585.35,-181.5 595.35,-178 585.35,-174.5 585.35,-181.5"/>
</g>
<!-- TruncatePipe  -->
<g id="node10" class="node">
<title>TruncatePipe </title>
<polygon fill="#fb8072" stroke="black" points="764.14,-252 669.86,-252 669.86,-216 764.14,-216 764.14,-252"/>
<text text-anchor="middle" x="717" y="-229.8" font-family="Times,serif" font-size="14.00">TruncatePipe </text>
</g>
<!-- SharedModule&#45;&gt;TruncatePipe  -->
<g id="edge9" class="edge">
<title>SharedModule&#45;&gt;TruncatePipe </title>
<path fill="none" stroke="black" stroke-dasharray="5,2" d="M682.07,-187.11C682.07,-187.11 682.07,-205.99 682.07,-205.99"/>
<polygon fill="black" stroke="black" points="678.57,-205.99 682.07,-215.99 685.57,-205.99 678.57,-205.99"/>
</g>
<!-- InlineLoaderComponent  -->
<g id="node11" class="node">
<title>InlineLoaderComponent </title>
<polygon fill="#fb8072" stroke="black" points="651.63,-252 494.37,-252 494.37,-216 651.63,-216 651.63,-252"/>
<text text-anchor="middle" x="573" y="-229.8" font-family="Times,serif" font-size="14.00">InlineLoaderComponent </text>
</g>
<!-- SharedModule&#45;&gt;InlineLoaderComponent  -->
<g id="edge10" class="edge">
<title>SharedModule&#45;&gt;InlineLoaderComponent </title>
<path fill="none" stroke="black" stroke-dasharray="5,2" d="M623.68,-187.11C623.68,-187.11 623.68,-205.99 623.68,-205.99"/>
<polygon fill="black" stroke="black" points="620.18,-205.99 623.68,-215.99 627.18,-205.99 620.18,-205.99"/>
</g>
<!-- CommonModule -->
<g id="node7" class="node">
<title>CommonModule</title>
<polygon fill="#8dd3c7" stroke="black" points="1173.67,-122 1170.67,-126 1149.67,-126 1146.67,-122 1062.33,-122 1062.33,-86 1173.67,-86 1173.67,-122"/>
<text text-anchor="middle" x="1118" y="-99.8" font-family="Times,serif" font-size="14.00">CommonModule</text>
</g>
<!-- CommonModule&#45;&gt;SharedModule -->
<g id="edge6" class="edge">
<title>CommonModule&#45;&gt;SharedModule</title>
<path fill="none" stroke="black" d="M1118,-122.29C1118,-144.21 1118,-178 1118,-178 1118,-178 704.28,-178 704.28,-178"/>
<polygon fill="black" stroke="black" points="704.28,-174.5 694.28,-178 704.28,-181.5 704.28,-174.5"/>
</g>
<!-- RouterModule -->
<g id="node8" class="node">
<title>RouterModule</title>
<polygon fill="#8dd3c7" stroke="black" points="1043.65,-122 1040.65,-126 1019.65,-126 1016.65,-122 946.35,-122 946.35,-86 1043.65,-86 1043.65,-122"/>
<text text-anchor="middle" x="995" y="-99.8" font-family="Times,serif" font-size="14.00">RouterModule</text>
</g>
<!-- RouterModule&#45;&gt;SharedModule -->
<g id="edge7" class="edge">
<title>RouterModule&#45;&gt;SharedModule</title>
<path fill="none" stroke="black" d="M995,-122.11C995,-141.34 995,-169 995,-169 995,-169 704.4,-169 704.4,-169"/>
<polygon fill="black" stroke="black" points="704.4,-165.5 694.4,-169 704.4,-172.5 704.4,-165.5"/>
</g>
<!-- ReactiveFormsModule -->
<g id="node9" class="node">
<title>ReactiveFormsModule</title>
<polygon fill="#8dd3c7" stroke="black" points="928.3,-122 925.3,-126 904.3,-126 901.3,-122 783.7,-122 783.7,-86 928.3,-86 928.3,-122"/>
<text text-anchor="middle" x="856" y="-99.8" font-family="Times,serif" font-size="14.00">ReactiveFormsModule</text>
</g>
<!-- ReactiveFormsModule&#45;&gt;SharedModule -->
<g id="edge8" class="edge">
<title>ReactiveFormsModule&#45;&gt;SharedModule</title>
<path fill="none" stroke="black" d="M856,-122.03C856,-138.4 856,-160 856,-160 856,-160 704.47,-160 704.47,-160"/>
<polygon fill="black" stroke="black" points="704.47,-156.5 694.47,-160 704.47,-163.5 704.47,-156.5"/>
</g>
</g>
</svg>
