<?xml version="1.0" encoding="UTF-8" standalone="no"?>
<!DOCTYPE svg PUBLIC "-//W3C//DTD SVG 1.1//EN"
 "http://www.w3.org/Graphics/SVG/1.1/DTD/svg11.dtd">
<!-- Generated by graphviz version 2.47.0 (20210316.0004)
 -->
<!-- Title: dependencies Pages: 1 -->
<svg width="1206pt" height="284pt"
 viewBox="0.00 0.00 1206.00 284.00" xmlns="http://www.w3.org/2000/svg" xmlns:xlink="http://www.w3.org/1999/xlink">
<g id="graph0" class="graph" transform="scale(1 1) rotate(0) translate(4 280)">
<title>dependencies</title>
<polygon fill="white" stroke="transparent" points="-4,4 -4,-280 1202,-280 1202,4 -4,4"/>
<text text-anchor="start" x="578.01" y="-42.4" font-family="Times-12" font-weight="bold" font-size="14.00">Legend</text>
<polygon fill="#ffffb3" stroke="transparent" points="365,-10 365,-30 385,-30 385,-10 365,-10"/>
<text text-anchor="start" x="388.63" y="-15.4" font-family="Times-12" font-size="14.00"> &#160;Declarations</text>
<polygon fill="#8dd3c7" stroke="transparent" points="478,-10 478,-30 498,-30 498,-10 478,-10"/>
<text text-anchor="start" x="501.73" y="-15.4" font-family="Times-12" font-size="14.00"> &#160;Module</text>
<polygon fill="#80b1d3" stroke="transparent" points="564,-10 564,-30 584,-30 584,-10 564,-10"/>
<text text-anchor="start" x="587.78" y="-15.4" font-family="Times-12" font-size="14.00"> &#160;Bootstrap</text>
<polygon fill="#fdb462" stroke="transparent" points="661,-10 661,-30 681,-30 681,-10 661,-10"/>
<text text-anchor="start" x="684.67" y="-15.4" font-family="Times-12" font-size="14.00"> &#160;Providers</text>
<polygon fill="#fb8072" stroke="transparent" points="757,-10 757,-30 777,-30 777,-10 757,-10"/>
<text text-anchor="start" x="780.73" y="-15.4" font-family="Times-12" font-size="14.00"> &#160;Exports</text>
<g id="clust1" class="cluster">
<title>cluster_SharedModule</title>
<polygon fill="none" stroke="black" stroke-dasharray="1,5" points="8,-70 8,-268 1190,-268 1190,-70 8,-70"/>
</g>
<g id="clust2" class="cluster">
<title>cluster_SharedModule_declarations</title>
<polygon fill="none" stroke="black" points="430,-78 430,-130 1182,-130 1182,-78 430,-78"/>
</g>
<g id="clust9" class="cluster">
<title>cluster_SharedModule_exports</title>
<polygon fill="none" stroke="black" points="442,-208 442,-260 728,-260 728,-208 442,-208"/>
</g>
<g id="clust8" class="cluster">
<title>cluster_SharedModule_imports</title>
<polygon fill="none" stroke="black" points="16,-78 16,-130 422,-130 422,-78 16,-78"/>
</g>
<!-- TruncatePipe -->
<g id="node1" class="node">
<title>TruncatePipe</title>
<polygon fill="#ffffb3" stroke="black" points="1174.14,-122 1083.86,-122 1083.86,-86 1174.14,-86 1174.14,-122"/>
<text text-anchor="middle" x="1129" y="-99.8" font-family="Times,serif" font-size="14.00">TruncatePipe</text>
</g>
<!-- SharedModule -->
<g id="node6" class="node">
<title>SharedModule</title>
<polygon fill="#8dd3c7" stroke="black" points="650.42,-187 647.42,-191 626.42,-191 623.42,-187 551.58,-187 551.58,-151 650.42,-151 650.42,-187"/>
<text text-anchor="middle" x="601" y="-164.8" font-family="Times,serif" font-size="14.00">SharedModule</text>
</g>
<!-- TruncatePipe&#45;&gt;SharedModule -->
<g id="edge1" class="edge">
<title>TruncatePipe&#45;&gt;SharedModule</title>
<path fill="none" stroke="black" d="M1129,-122.29C1129,-144.21 1129,-178 1129,-178 1129,-178 660.67,-178 660.67,-178"/>
<polygon fill="black" stroke="black" points="660.67,-174.5 650.67,-178 660.67,-181.5 660.67,-174.5"/>
</g>
<!-- InlineLoaderComponent -->
<g id="node2" class="node">
<title>InlineLoaderComponent</title>
<polygon fill="#ffffb3" stroke="black" points="1065.63,-122 912.37,-122 912.37,-86 1065.63,-86 1065.63,-122"/>
<text text-anchor="middle" x="989" y="-99.8" font-family="Times,serif" font-size="14.00">InlineLoaderComponent</text>
</g>
<!-- InlineLoaderComponent&#45;&gt;SharedModule -->
<g id="edge2" class="edge">
<title>InlineLoaderComponent&#45;&gt;SharedModule</title>
<path fill="none" stroke="black" d="M989,-122.11C989,-141.34 989,-169 989,-169 989,-169 660.53,-169 660.53,-169"/>
<polygon fill="black" stroke="black" points="660.53,-165.5 650.53,-169 660.53,-172.5 660.53,-165.5"/>
</g>
<!-- DriveOutComponent -->
<g id="node3" class="node">
<title>DriveOutComponent</title>
<polygon fill="#ffffb3" stroke="black" points="894.2,-122 759.8,-122 759.8,-86 894.2,-86 894.2,-122"/>
<text text-anchor="middle" x="827" y="-99.8" font-family="Times,serif" font-size="14.00">DriveOutComponent</text>
</g>
<!-- DriveOutComponent&#45;&gt;SharedModule -->
<g id="edge3" class="edge">
<title>DriveOutComponent&#45;&gt;SharedModule</title>
<path fill="none" stroke="black" d="M827,-122.03C827,-138.4 827,-160 827,-160 827,-160 660.32,-160 660.32,-160"/>
<polygon fill="black" stroke="black" points="660.32,-156.5 650.32,-160 660.32,-163.5 660.32,-156.5"/>
</g>
<!-- BillingComponent -->
<g id="node4" class="node">
<title>BillingComponent</title>
<polygon fill="#ffffb3" stroke="black" points="742.23,-122 621.77,-122 621.77,-86 742.23,-86 742.23,-122"/>
<text text-anchor="middle" x="682" y="-99.8" font-family="Times,serif" font-size="14.00">BillingComponent</text>
</g>
<!-- BillingComponent&#45;&gt;SharedModule -->
<g id="edge4" class="edge">
<title>BillingComponent&#45;&gt;SharedModule</title>
<path fill="none" stroke="black" d="M636.05,-122.11C636.05,-122.11 636.05,-140.99 636.05,-140.99"/>
<polygon fill="black" stroke="black" points="632.55,-140.99 636.05,-150.99 639.55,-140.99 632.55,-140.99"/>
</g>
<!-- PageNotFoundComponent -->
<g id="node5" class="node">
<title>PageNotFoundComponent</title>
<polygon fill="#ffffb3" stroke="black" points="603.82,-122 438.18,-122 438.18,-86 603.82,-86 603.82,-122"/>
<text text-anchor="middle" x="521" y="-99.8" font-family="Times,serif" font-size="14.00">PageNotFoundComponent</text>
</g>
<!-- PageNotFoundComponent&#45;&gt;SharedModule -->
<g id="edge5" class="edge">
<title>PageNotFoundComponent&#45;&gt;SharedModule</title>
<path fill="none" stroke="black" d="M577.73,-122.11C577.73,-122.11 577.73,-140.99 577.73,-140.99"/>
<polygon fill="black" stroke="black" points="574.23,-140.99 577.73,-150.99 581.23,-140.99 574.23,-140.99"/>
</g>
<!-- TruncatePipe  -->
<g id="node10" class="node">
<title>TruncatePipe </title>
<polygon fill="#fb8072" stroke="black" points="720.14,-252 625.86,-252 625.86,-216 720.14,-216 720.14,-252"/>
<text text-anchor="middle" x="673" y="-229.8" font-family="Times,serif" font-size="14.00">TruncatePipe </text>
</g>
<!-- SharedModule&#45;&gt;TruncatePipe  -->
<g id="edge9" class="edge">
<title>SharedModule&#45;&gt;TruncatePipe </title>
<path fill="none" stroke="black" stroke-dasharray="5,2" d="M638.07,-187.11C638.07,-187.11 638.07,-205.99 638.07,-205.99"/>
<polygon fill="black" stroke="black" points="634.57,-205.99 638.07,-215.99 641.57,-205.99 634.57,-205.99"/>
</g>
<!-- InlineLoaderComponent  -->
<g id="node11" class="node">
<title>InlineLoaderComponent </title>
<polygon fill="#fb8072" stroke="black" points="607.63,-252 450.37,-252 450.37,-216 607.63,-216 607.63,-252"/>
<text text-anchor="middle" x="529" y="-229.8" font-family="Times,serif" font-size="14.00">InlineLoaderComponent </text>
</g>
<!-- SharedModule&#45;&gt;InlineLoaderComponent  -->
<g id="edge10" class="edge">
<title>SharedModule&#45;&gt;InlineLoaderComponent </title>
<path fill="none" stroke="black" stroke-dasharray="5,2" d="M579.68,-187.11C579.68,-187.11 579.68,-205.99 579.68,-205.99"/>
<polygon fill="black" stroke="black" points="576.18,-205.99 579.68,-215.99 583.18,-205.99 576.18,-205.99"/>
</g>
<!-- CommonModule -->
<g id="node7" class="node">
<title>CommonModule</title>
<polygon fill="#8dd3c7" stroke="black" points="413.67,-122 410.67,-126 389.67,-126 386.67,-122 302.33,-122 302.33,-86 413.67,-86 413.67,-122"/>
<text text-anchor="middle" x="358" y="-99.8" font-family="Times,serif" font-size="14.00">CommonModule</text>
</g>
<!-- CommonModule&#45;&gt;SharedModule -->
<g id="edge6" class="edge">
<title>CommonModule&#45;&gt;SharedModule</title>
<path fill="none" stroke="black" d="M358,-122.03C358,-138.4 358,-160 358,-160 358,-160 541.53,-160 541.53,-160"/>
<polygon fill="black" stroke="black" points="541.53,-163.5 551.53,-160 541.53,-156.5 541.53,-163.5"/>
</g>
<!-- RouterModule -->
<g id="node8" class="node">
<title>RouterModule</title>
<polygon fill="#8dd3c7" stroke="black" points="283.65,-122 280.65,-126 259.65,-126 256.65,-122 186.35,-122 186.35,-86 283.65,-86 283.65,-122"/>
<text text-anchor="middle" x="235" y="-99.8" font-family="Times,serif" font-size="14.00">RouterModule</text>
</g>
<!-- RouterModule&#45;&gt;SharedModule -->
<g id="edge7" class="edge">
<title>RouterModule&#45;&gt;SharedModule</title>
<path fill="none" stroke="black" d="M235,-122.11C235,-141.34 235,-169 235,-169 235,-169 541.64,-169 541.64,-169"/>
<polygon fill="black" stroke="black" points="541.64,-172.5 551.64,-169 541.64,-165.5 541.64,-172.5"/>
</g>
<!-- ReactiveFormsModule -->
<g id="node9" class="node">
<title>ReactiveFormsModule</title>
<polygon fill="#8dd3c7" stroke="black" points="168.3,-122 165.3,-126 144.3,-126 141.3,-122 23.7,-122 23.7,-86 168.3,-86 168.3,-122"/>
<text text-anchor="middle" x="96" y="-99.8" font-family="Times,serif" font-size="14.00">ReactiveFormsModule</text>
</g>
<!-- ReactiveFormsModule&#45;&gt;SharedModule -->
<g id="edge8" class="edge">
<title>ReactiveFormsModule&#45;&gt;SharedModule</title>
<path fill="none" stroke="black" d="M96,-122.29C96,-144.21 96,-178 96,-178 96,-178 541.66,-178 541.66,-178"/>
<polygon fill="black" stroke="black" points="541.66,-181.5 551.66,-178 541.66,-174.5 541.66,-181.5"/>
</g>
</g>
</svg>
