<?xml version="1.0" encoding="UTF-8" standalone="no"?>
<!DOCTYPE svg PUBLIC "-//W3C//DTD SVG 1.1//EN"
 "http://www.w3.org/Graphics/SVG/1.1/DTD/svg11.dtd">
<!-- Generated by graphviz version 2.47.0 (20210316.0004)
 -->
<!-- Title: dependencies Pages: 1 -->
<svg width="791pt" height="284pt"
 viewBox="0.00 0.00 791.00 284.00" xmlns="http://www.w3.org/2000/svg" xmlns:xlink="http://www.w3.org/1999/xlink">
<g id="graph0" class="graph" transform="scale(1 1) rotate(0) translate(4 280)">
<title>dependencies</title>
<polygon fill="white" stroke="transparent" points="-4,4 -4,-280 787,-280 787,4 -4,4"/>
<text text-anchor="start" x="370.51" y="-42.4" font-family="Times-12" font-weight="bold" font-size="14.00">Legend</text>
<polygon fill="#ffffb3" stroke="transparent" points="157.5,-10 157.5,-30 177.5,-30 177.5,-10 157.5,-10"/>
<text text-anchor="start" x="181.13" y="-15.4" font-family="Times-12" font-size="14.00"> &#160;Declarations</text>
<polygon fill="#8dd3c7" stroke="transparent" points="270.5,-10 270.5,-30 290.5,-30 290.5,-10 270.5,-10"/>
<text text-anchor="start" x="294.23" y="-15.4" font-family="Times-12" font-size="14.00"> &#160;Module</text>
<polygon fill="#80b1d3" stroke="transparent" points="356.5,-10 356.5,-30 376.5,-30 376.5,-10 356.5,-10"/>
<text text-anchor="start" x="380.28" y="-15.4" font-family="Times-12" font-size="14.00"> &#160;Bootstrap</text>
<polygon fill="#fdb462" stroke="transparent" points="453.5,-10 453.5,-30 473.5,-30 473.5,-10 453.5,-10"/>
<text text-anchor="start" x="477.17" y="-15.4" font-family="Times-12" font-size="14.00"> &#160;Providers</text>
<polygon fill="#fb8072" stroke="transparent" points="549.5,-10 549.5,-30 569.5,-30 569.5,-10 549.5,-10"/>
<text text-anchor="start" x="573.23" y="-15.4" font-family="Times-12" font-size="14.00"> &#160;Exports</text>
<g id="clust1" class="cluster">
<title>cluster_SharedModule</title>
<polygon fill="none" stroke="black" stroke-dasharray="1,5" points="8,-70 8,-268 775,-268 775,-70 8,-70"/>
</g>
<g id="clust9" class="cluster">
<title>cluster_SharedModule_exports</title>
<polygon fill="none" stroke="black" points="265,-208 265,-260 551,-260 551,-208 265,-208"/>
</g>
<g id="clust2" class="cluster">
<title>cluster_SharedModule_declarations</title>
<polygon fill="none" stroke="black" points="16,-78 16,-130 767,-130 767,-78 16,-78"/>
</g>
<!-- BillingComponent -->
<g id="node1" class="node">
<title>BillingComponent</title>
<polygon fill="#ffffb3" stroke="black" points="759.23,-122 638.77,-122 638.77,-86 759.23,-86 759.23,-122"/>
<text text-anchor="middle" x="699" y="-99.8" font-family="Times,serif" font-size="14.00">BillingComponent</text>
</g>
<!-- SharedModule -->
<g id="node6" class="node">
<title>SharedModule</title>
<polygon fill="#8dd3c7" stroke="black" points="441.42,-187 438.42,-191 417.42,-191 414.42,-187 342.58,-187 342.58,-151 441.42,-151 441.42,-187"/>
<text text-anchor="middle" x="392" y="-164.8" font-family="Times,serif" font-size="14.00">SharedModule</text>
</g>
<!-- BillingComponent&#45;&gt;SharedModule -->
<g id="edge1" class="edge">
<title>BillingComponent&#45;&gt;SharedModule</title>
<path fill="none" stroke="black" d="M699,-122.28C699,-143.32 699,-175 699,-175 699,-175 451.32,-175 451.32,-175"/>
<polygon fill="black" stroke="black" points="451.32,-171.5 441.32,-175 451.32,-178.5 451.32,-171.5"/>
</g>
<!-- DriveOutComponent -->
<g id="node2" class="node">
<title>DriveOutComponent</title>
<polygon fill="#ffffb3" stroke="black" points="621.2,-122 486.8,-122 486.8,-86 621.2,-86 621.2,-122"/>
<text text-anchor="middle" x="554" y="-99.8" font-family="Times,serif" font-size="14.00">DriveOutComponent</text>
</g>
<!-- DriveOutComponent&#45;&gt;SharedModule -->
<g id="edge2" class="edge">
<title>DriveOutComponent&#45;&gt;SharedModule</title>
<path fill="none" stroke="black" d="M514.73,-122.02C514.73,-139.37 514.73,-163 514.73,-163 514.73,-163 451.21,-163 451.21,-163"/>
<polygon fill="black" stroke="black" points="451.21,-159.5 441.21,-163 451.21,-166.5 451.21,-159.5"/>
</g>
<!-- InlineLoaderComponent -->
<g id="node3" class="node">
<title>InlineLoaderComponent</title>
<polygon fill="#ffffb3" stroke="black" points="468.63,-122 315.37,-122 315.37,-86 468.63,-86 468.63,-122"/>
<text text-anchor="middle" x="392" y="-99.8" font-family="Times,serif" font-size="14.00">InlineLoaderComponent</text>
</g>
<!-- InlineLoaderComponent&#45;&gt;SharedModule -->
<g id="edge3" class="edge">
<title>InlineLoaderComponent&#45;&gt;SharedModule</title>
<path fill="none" stroke="black" d="M392,-122.11C392,-122.11 392,-140.99 392,-140.99"/>
<polygon fill="black" stroke="black" points="388.5,-140.99 392,-150.99 395.5,-140.99 388.5,-140.99"/>
</g>
<!-- PageNotFoundComponent -->
<g id="node4" class="node">
<title>PageNotFoundComponent</title>
<polygon fill="#ffffb3" stroke="black" points="297.82,-122 132.18,-122 132.18,-86 297.82,-86 297.82,-122"/>
<text text-anchor="middle" x="215" y="-99.8" font-family="Times,serif" font-size="14.00">PageNotFoundComponent</text>
</g>
<!-- PageNotFoundComponent&#45;&gt;SharedModule -->
<g id="edge4" class="edge">
<title>PageNotFoundComponent&#45;&gt;SharedModule</title>
<path fill="none" stroke="black" d="M285.3,-122.02C285.3,-139.37 285.3,-163 285.3,-163 285.3,-163 332.71,-163 332.71,-163"/>
<polygon fill="black" stroke="black" points="332.71,-166.5 342.71,-163 332.71,-159.5 332.71,-166.5"/>
</g>
<!-- TruncatePipe -->
<g id="node5" class="node">
<title>TruncatePipe</title>
<polygon fill="#ffffb3" stroke="black" points="114.14,-122 23.86,-122 23.86,-86 114.14,-86 114.14,-122"/>
<text text-anchor="middle" x="69" y="-99.8" font-family="Times,serif" font-size="14.00">TruncatePipe</text>
</g>
<!-- TruncatePipe&#45;&gt;SharedModule -->
<g id="edge5" class="edge">
<title>TruncatePipe&#45;&gt;SharedModule</title>
<path fill="none" stroke="black" d="M69,-122.28C69,-143.32 69,-175 69,-175 69,-175 332.59,-175 332.59,-175"/>
<polygon fill="black" stroke="black" points="332.59,-178.5 342.59,-175 332.59,-171.5 332.59,-178.5"/>
</g>
<!-- InlineLoaderComponent  -->
<g id="node7" class="node">
<title>InlineLoaderComponent </title>
<polygon fill="#fb8072" stroke="black" points="542.63,-252 385.37,-252 385.37,-216 542.63,-216 542.63,-252"/>
<text text-anchor="middle" x="464" y="-229.8" font-family="Times,serif" font-size="14.00">InlineLoaderComponent </text>
</g>
<!-- SharedModule&#45;&gt;InlineLoaderComponent  -->
<g id="edge6" class="edge">
<title>SharedModule&#45;&gt;InlineLoaderComponent </title>
<path fill="none" stroke="black" stroke-dasharray="5,2" d="M413.32,-187.11C413.32,-187.11 413.32,-205.99 413.32,-205.99"/>
<polygon fill="black" stroke="black" points="409.82,-205.99 413.32,-215.99 416.82,-205.99 409.82,-205.99"/>
</g>
<!-- TruncatePipe  -->
<g id="node8" class="node">
<title>TruncatePipe </title>
<polygon fill="#fb8072" stroke="black" points="367.14,-252 272.86,-252 272.86,-216 367.14,-216 367.14,-252"/>
<text text-anchor="middle" x="320" y="-229.8" font-family="Times,serif" font-size="14.00">TruncatePipe </text>
</g>
<!-- SharedModule&#45;&gt;TruncatePipe  -->
<g id="edge7" class="edge">
<title>SharedModule&#45;&gt;TruncatePipe </title>
<path fill="none" stroke="black" stroke-dasharray="5,2" d="M354.93,-187.11C354.93,-187.11 354.93,-205.99 354.93,-205.99"/>
<polygon fill="black" stroke="black" points="351.43,-205.99 354.93,-215.99 358.43,-205.99 351.43,-205.99"/>
</g>
</g>
</svg>
