<?xml version="1.0" encoding="UTF-8" standalone="no"?>
<!DOCTYPE svg PUBLIC "-//W3C//DTD SVG 1.1//EN"
 "http://www.w3.org/Graphics/SVG/1.1/DTD/svg11.dtd">
<!-- Generated by graphviz version 2.47.0 (20210316.0004)
 -->
<!-- Title: dependencies Pages: 1 -->
<svg width="4283pt" height="211pt"
 viewBox="0.00 0.00 4283.00 211.00" xmlns="http://www.w3.org/2000/svg" xmlns:xlink="http://www.w3.org/1999/xlink">
<g id="graph0" class="graph" transform="scale(1 1) rotate(0) translate(4 207)">
<title>dependencies</title>
<polygon fill="white" stroke="transparent" points="-4,4 -4,-207 4279,-207 4279,4 -4,4"/>
<text text-anchor="start" x="2116.51" y="-42.4" font-family="Times-12" font-weight="bold" font-size="14.00">Legend</text>
<polygon fill="#ffffb3" stroke="transparent" points="1903.5,-10 1903.5,-30 1923.5,-30 1923.5,-10 1903.5,-10"/>
<text text-anchor="start" x="1927.13" y="-15.4" font-family="Times-12" font-size="14.00"> &#160;Declarations</text>
<polygon fill="#8dd3c7" stroke="transparent" points="2016.5,-10 2016.5,-30 2036.5,-30 2036.5,-10 2016.5,-10"/>
<text text-anchor="start" x="2040.23" y="-15.4" font-family="Times-12" font-size="14.00"> &#160;Module</text>
<polygon fill="#80b1d3" stroke="transparent" points="2102.5,-10 2102.5,-30 2122.5,-30 2122.5,-10 2102.5,-10"/>
<text text-anchor="start" x="2126.28" y="-15.4" font-family="Times-12" font-size="14.00"> &#160;Bootstrap</text>
<polygon fill="#fdb462" stroke="transparent" points="2199.5,-10 2199.5,-30 2219.5,-30 2219.5,-10 2199.5,-10"/>
<text text-anchor="start" x="2223.17" y="-15.4" font-family="Times-12" font-size="14.00"> &#160;Providers</text>
<polygon fill="#fb8072" stroke="transparent" points="2295.5,-10 2295.5,-30 2315.5,-30 2315.5,-10 2295.5,-10"/>
<text text-anchor="start" x="2319.23" y="-15.4" font-family="Times-12" font-size="14.00"> &#160;Exports</text>
<g id="clust1" class="cluster">
<title>cluster_DashboardModule</title>
<polygon fill="none" stroke="black" stroke-dasharray="1,5" points="8,-70 8,-195 4267,-195 4267,-70 8,-70"/>
</g>
<g id="clust2" class="cluster">
<title>cluster_DashboardModule_declarations</title>
<polygon fill="none" stroke="black" points="1835,-78 1835,-130 4259,-130 4259,-78 1835,-78"/>
</g>
<g id="clust18" class="cluster">
<title>cluster_DashboardModule_imports</title>
<polygon fill="none" stroke="black" points="16,-78 16,-130 1827,-130 1827,-78 16,-78"/>
</g>
<!-- PremisesComponent -->
<g id="node1" class="node">
<title>PremisesComponent</title>
<polygon fill="#ffffb3" stroke="black" points="4250.88,-122 4119.12,-122 4119.12,-86 4250.88,-86 4250.88,-122"/>
<text text-anchor="middle" x="4185" y="-99.8" font-family="Times,serif" font-size="14.00">PremisesComponent</text>
</g>
<!-- DashboardModule -->
<g id="node16" class="node">
<title>DashboardModule</title>
<polygon fill="#8dd3c7" stroke="black" points="2298.19,-187 2295.19,-191 2274.19,-191 2271.19,-187 2177.81,-187 2177.81,-151 2298.19,-151 2298.19,-187"/>
<text text-anchor="middle" x="2238" y="-164.8" font-family="Times,serif" font-size="14.00">DashboardModule</text>
</g>
<!-- PremisesComponent&#45;&gt;DashboardModule -->
<g id="edge1" class="edge">
<title>PremisesComponent&#45;&gt;DashboardModule</title>
<path fill="none" stroke="black" d="M4185,-122.38C4185,-146.28 4185,-185 4185,-185 4185,-185 2308.14,-185 2308.14,-185"/>
<polygon fill="black" stroke="black" points="2308.14,-181.5 2298.14,-185 2308.14,-188.5 2308.14,-181.5"/>
</g>
<!-- LogsComponent -->
<g id="node2" class="node">
<title>LogsComponent</title>
<polygon fill="#ffffb3" stroke="black" points="4100.83,-122 3991.17,-122 3991.17,-86 4100.83,-86 4100.83,-122"/>
<text text-anchor="middle" x="4046" y="-99.8" font-family="Times,serif" font-size="14.00">LogsComponent</text>
</g>
<!-- LogsComponent&#45;&gt;DashboardModule -->
<g id="edge2" class="edge">
<title>LogsComponent&#45;&gt;DashboardModule</title>
<path fill="none" stroke="black" d="M4046,-122.09C4046,-145.13 4046,-182 4046,-182 4046,-182 2308.16,-182 2308.16,-182"/>
<polygon fill="black" stroke="black" points="2308.16,-178.5 2298.16,-182 2308.16,-185.5 2308.16,-178.5"/>
</g>
<!-- RevenuesComponent -->
<g id="node3" class="node">
<title>RevenuesComponent</title>
<polygon fill="#ffffb3" stroke="black" points="3972.76,-122 3837.24,-122 3837.24,-86 3972.76,-86 3972.76,-122"/>
<text text-anchor="middle" x="3905" y="-99.8" font-family="Times,serif" font-size="14.00">RevenuesComponent</text>
</g>
<!-- RevenuesComponent&#45;&gt;DashboardModule -->
<g id="edge3" class="edge">
<title>RevenuesComponent&#45;&gt;DashboardModule</title>
<path fill="none" stroke="black" d="M3905,-122.16C3905,-144.35 3905,-179 3905,-179 3905,-179 2308.31,-179 2308.31,-179"/>
<polygon fill="black" stroke="black" points="2308.31,-175.5 2298.31,-179 2308.31,-182.5 2308.31,-175.5"/>
</g>
<!-- AnalyticsComponent -->
<g id="node4" class="node">
<title>AnalyticsComponent</title>
<polygon fill="#ffffb3" stroke="black" points="3819.48,-122 3684.52,-122 3684.52,-86 3819.48,-86 3819.48,-122"/>
<text text-anchor="middle" x="3752" y="-99.8" font-family="Times,serif" font-size="14.00">AnalyticsComponent</text>
</g>
<!-- AnalyticsComponent&#45;&gt;DashboardModule -->
<g id="edge4" class="edge">
<title>AnalyticsComponent&#45;&gt;DashboardModule</title>
<path fill="none" stroke="black" d="M3752,-122.17C3752,-143.5 3752,-176 3752,-176 3752,-176 2308.28,-176 2308.28,-176"/>
<polygon fill="black" stroke="black" points="2308.28,-172.5 2298.28,-176 2308.28,-179.5 2308.28,-172.5"/>
</g>
<!-- AssetsManagementComponent -->
<g id="node5" class="node">
<title>AssetsManagementComponent</title>
<polygon fill="#ffffb3" stroke="black" points="3666.46,-122 3475.54,-122 3475.54,-86 3666.46,-86 3666.46,-122"/>
<text text-anchor="middle" x="3571" y="-99.8" font-family="Times,serif" font-size="14.00">AssetsManagementComponent</text>
</g>
<!-- AssetsManagementComponent&#45;&gt;DashboardModule -->
<g id="edge5" class="edge">
<title>AssetsManagementComponent&#45;&gt;DashboardModule</title>
<path fill="none" stroke="black" d="M3571,-122.03C3571,-142.77 3571,-174 3571,-174 3571,-174 2308.3,-174 2308.3,-174"/>
<polygon fill="black" stroke="black" points="2308.3,-170.5 2298.3,-174 2308.3,-177.5 2308.3,-170.5"/>
</g>
<!-- UserManagementComponent -->
<g id="node6" class="node">
<title>UserManagementComponent</title>
<polygon fill="#ffffb3" stroke="black" points="3457.34,-122 3276.66,-122 3276.66,-86 3457.34,-86 3457.34,-122"/>
<text text-anchor="middle" x="3367" y="-99.8" font-family="Times,serif" font-size="14.00">UserManagementComponent</text>
</g>
<!-- UserManagementComponent&#45;&gt;DashboardModule -->
<g id="edge6" class="edge">
<title>UserManagementComponent&#45;&gt;DashboardModule</title>
<path fill="none" stroke="black" d="M3367,-122.31C3367,-142.15 3367,-171 3367,-171 3367,-171 2308.3,-171 2308.3,-171"/>
<polygon fill="black" stroke="black" points="2308.3,-167.5 2298.3,-171 2308.3,-174.5 2308.3,-167.5"/>
</g>
<!-- AccountComponent -->
<g id="node7" class="node">
<title>AccountComponent</title>
<polygon fill="#ffffb3" stroke="black" points="3258.26,-122 3129.74,-122 3129.74,-86 3258.26,-86 3258.26,-122"/>
<text text-anchor="middle" x="3194" y="-99.8" font-family="Times,serif" font-size="14.00">AccountComponent</text>
</g>
<!-- AccountComponent&#45;&gt;DashboardModule -->
<g id="edge7" class="edge">
<title>AccountComponent&#45;&gt;DashboardModule</title>
<path fill="none" stroke="black" d="M3194,-122.17C3194,-141.09 3194,-168 3194,-168 3194,-168 2308.16,-168 2308.16,-168"/>
<polygon fill="black" stroke="black" points="2308.16,-164.5 2298.16,-168 2308.16,-171.5 2308.16,-164.5"/>
</g>
<!-- SettingsComponent -->
<g id="node8" class="node">
<title>SettingsComponent</title>
<polygon fill="#ffffb3" stroke="black" points="3111.45,-122 2984.55,-122 2984.55,-86 3111.45,-86 3111.45,-122"/>
<text text-anchor="middle" x="3048" y="-99.8" font-family="Times,serif" font-size="14.00">SettingsComponent</text>
</g>
<!-- SettingsComponent&#45;&gt;DashboardModule -->
<g id="edge8" class="edge">
<title>SettingsComponent&#45;&gt;DashboardModule</title>
<path fill="none" stroke="black" d="M3048,-122.3C3048,-140.27 3048,-165 3048,-165 3048,-165 2308.22,-165 2308.22,-165"/>
<polygon fill="black" stroke="black" points="2308.22,-161.5 2298.22,-165 2308.22,-168.5 2308.22,-161.5"/>
</g>
<!-- DashComponent -->
<g id="node9" class="node">
<title>DashComponent</title>
<polygon fill="#ffffb3" stroke="black" points="2967.1,-122 2856.9,-122 2856.9,-86 2967.1,-86 2967.1,-122"/>
<text text-anchor="middle" x="2912" y="-99.8" font-family="Times,serif" font-size="14.00">DashComponent</text>
</g>
<!-- DashComponent&#45;&gt;DashboardModule -->
<g id="edge9" class="edge">
<title>DashComponent&#45;&gt;DashboardModule</title>
<path fill="none" stroke="black" d="M2912,-122.02C2912,-139.37 2912,-163 2912,-163 2912,-163 2308.11,-163 2308.11,-163"/>
<polygon fill="black" stroke="black" points="2308.11,-159.5 2298.11,-163 2308.11,-166.5 2308.11,-159.5"/>
</g>
<!-- DashboardComponent -->
<g id="node10" class="node">
<title>DashboardComponent</title>
<polygon fill="#ffffb3" stroke="black" points="2838.97,-122 2697.03,-122 2697.03,-86 2838.97,-86 2838.97,-122"/>
<text text-anchor="middle" x="2768" y="-99.8" font-family="Times,serif" font-size="14.00">DashboardComponent</text>
</g>
<!-- DashboardComponent&#45;&gt;DashboardModule -->
<g id="edge10" class="edge">
<title>DashboardComponent&#45;&gt;DashboardModule</title>
<path fill="none" stroke="black" d="M2768,-122.03C2768,-138.4 2768,-160 2768,-160 2768,-160 2308.28,-160 2308.28,-160"/>
<polygon fill="black" stroke="black" points="2308.28,-156.5 2298.28,-160 2308.28,-163.5 2308.28,-156.5"/>
</g>
<!-- DriveInComponent -->
<g id="node11" class="node">
<title>DriveInComponent</title>
<polygon fill="#ffffb3" stroke="black" points="2679.37,-122 2554.63,-122 2554.63,-86 2679.37,-86 2679.37,-122"/>
<text text-anchor="middle" x="2617" y="-99.8" font-family="Times,serif" font-size="14.00">DriveInComponent</text>
</g>
<!-- DriveInComponent&#45;&gt;DashboardModule -->
<g id="edge11" class="edge">
<title>DriveInComponent&#45;&gt;DashboardModule</title>
<path fill="none" stroke="black" d="M2617,-122.24C2617,-137.57 2617,-157 2617,-157 2617,-157 2308.47,-157 2308.47,-157"/>
<polygon fill="black" stroke="black" points="2308.47,-153.5 2298.47,-157 2308.47,-160.5 2308.47,-153.5"/>
</g>
<!-- MotoristManagementComponent -->
<g id="node12" class="node">
<title>MotoristManagementComponent</title>
<polygon fill="#ffffb3" stroke="black" points="2536.14,-122 2333.86,-122 2333.86,-86 2536.14,-86 2536.14,-122"/>
<text text-anchor="middle" x="2435" y="-99.8" font-family="Times,serif" font-size="14.00">MotoristManagementComponent</text>
</g>
<!-- MotoristManagementComponent&#45;&gt;DashboardModule -->
<g id="edge12" class="edge">
<title>MotoristManagementComponent&#45;&gt;DashboardModule</title>
<path fill="none" stroke="black" d="M2435,-122.05C2435,-136.37 2435,-154 2435,-154 2435,-154 2308.18,-154 2308.18,-154"/>
<polygon fill="black" stroke="black" points="2308.18,-150.5 2298.18,-154 2308.18,-157.5 2308.18,-150.5"/>
</g>
<!-- NotificationsComponent -->
<g id="node13" class="node">
<title>NotificationsComponent</title>
<polygon fill="#ffffb3" stroke="black" points="2315.43,-122 2160.57,-122 2160.57,-86 2315.43,-86 2315.43,-122"/>
<text text-anchor="middle" x="2238" y="-99.8" font-family="Times,serif" font-size="14.00">NotificationsComponent</text>
</g>
<!-- NotificationsComponent&#45;&gt;DashboardModule -->
<g id="edge13" class="edge">
<title>NotificationsComponent&#45;&gt;DashboardModule</title>
<path fill="none" stroke="black" d="M2238,-122.11C2238,-122.11 2238,-140.99 2238,-140.99"/>
<polygon fill="black" stroke="black" points="2234.5,-140.99 2238,-150.99 2241.5,-140.99 2234.5,-140.99"/>
</g>
<!-- SideNavComponent -->
<g id="node14" class="node">
<title>SideNavComponent</title>
<polygon fill="#ffffb3" stroke="black" points="2142.54,-122 2013.46,-122 2013.46,-86 2142.54,-86 2142.54,-122"/>
<text text-anchor="middle" x="2078" y="-99.8" font-family="Times,serif" font-size="14.00">SideNavComponent</text>
</g>
<!-- SideNavComponent&#45;&gt;DashboardModule -->
<g id="edge14" class="edge">
<title>SideNavComponent&#45;&gt;DashboardModule</title>
<path fill="none" stroke="black" d="M2078,-122.05C2078,-136.37 2078,-154 2078,-154 2078,-154 2167.51,-154 2167.51,-154"/>
<polygon fill="black" stroke="black" points="2167.51,-157.5 2177.51,-154 2167.51,-150.5 2167.51,-157.5"/>
</g>
<!-- LinearGraphComponent -->
<g id="node15" class="node">
<title>LinearGraphComponent</title>
<polygon fill="#ffffb3" stroke="black" points="1995.35,-122 1842.65,-122 1842.65,-86 1995.35,-86 1995.35,-122"/>
<text text-anchor="middle" x="1919" y="-99.8" font-family="Times,serif" font-size="14.00">LinearGraphComponent</text>
</g>
<!-- LinearGraphComponent&#45;&gt;DashboardModule -->
<g id="edge15" class="edge">
<title>LinearGraphComponent&#45;&gt;DashboardModule</title>
<path fill="none" stroke="black" d="M1919,-122.24C1919,-137.57 1919,-157 1919,-157 1919,-157 2167.62,-157 2167.62,-157"/>
<polygon fill="black" stroke="black" points="2167.62,-160.5 2177.62,-157 2167.62,-153.5 2167.62,-160.5"/>
</g>
<!-- CommonModule -->
<g id="node17" class="node">
<title>CommonModule</title>
<polygon fill="#8dd3c7" stroke="black" points="1818.67,-122 1815.67,-126 1794.67,-126 1791.67,-122 1707.33,-122 1707.33,-86 1818.67,-86 1818.67,-122"/>
<text text-anchor="middle" x="1763" y="-99.8" font-family="Times,serif" font-size="14.00">CommonModule</text>
</g>
<!-- CommonModule&#45;&gt;DashboardModule -->
<g id="edge16" class="edge">
<title>CommonModule&#45;&gt;DashboardModule</title>
<path fill="none" stroke="black" d="M1763,-122.03C1763,-138.4 1763,-160 1763,-160 1763,-160 2167.84,-160 2167.84,-160"/>
<polygon fill="black" stroke="black" points="2167.84,-163.5 2177.84,-160 2167.84,-156.5 2167.84,-163.5"/>
</g>
<!-- DashboardRoutingModule -->
<g id="node18" class="node">
<title>DashboardRoutingModule</title>
<polygon fill="#8dd3c7" stroke="black" points="1689.81,-122 1686.81,-126 1665.81,-126 1662.81,-122 1524.19,-122 1524.19,-86 1689.81,-86 1689.81,-122"/>
<text text-anchor="middle" x="1607" y="-99.8" font-family="Times,serif" font-size="14.00">DashboardRoutingModule</text>
</g>
<!-- DashboardRoutingModule&#45;&gt;DashboardModule -->
<g id="edge17" class="edge">
<title>DashboardRoutingModule&#45;&gt;DashboardModule</title>
<path fill="none" stroke="black" d="M1607,-122.02C1607,-139.37 1607,-163 1607,-163 1607,-163 2167.78,-163 2167.78,-163"/>
<polygon fill="black" stroke="black" points="2167.78,-166.5 2177.78,-163 2167.78,-159.5 2167.78,-166.5"/>
</g>
<!-- ReactiveFormsModule -->
<g id="node19" class="node">
<title>ReactiveFormsModule</title>
<polygon fill="#8dd3c7" stroke="black" points="1506.3,-122 1503.3,-126 1482.3,-126 1479.3,-122 1361.7,-122 1361.7,-86 1506.3,-86 1506.3,-122"/>
<text text-anchor="middle" x="1434" y="-99.8" font-family="Times,serif" font-size="14.00">ReactiveFormsModule</text>
</g>
<!-- ReactiveFormsModule&#45;&gt;DashboardModule -->
<g id="edge18" class="edge">
<title>ReactiveFormsModule&#45;&gt;DashboardModule</title>
<path fill="none" stroke="black" d="M1434,-122.3C1434,-140.27 1434,-165 1434,-165 1434,-165 2167.9,-165 2167.9,-165"/>
<polygon fill="black" stroke="black" points="2167.9,-168.5 2177.9,-165 2167.9,-161.5 2167.9,-168.5"/>
</g>
<!-- IgxLegendModule -->
<g id="node20" class="node">
<title>IgxLegendModule</title>
<polygon fill="#8dd3c7" stroke="black" points="1344.19,-122 1341.19,-126 1320.19,-126 1317.19,-122 1223.81,-122 1223.81,-86 1344.19,-86 1344.19,-122"/>
<text text-anchor="middle" x="1284" y="-99.8" font-family="Times,serif" font-size="14.00">IgxLegendModule</text>
</g>
<!-- IgxLegendModule&#45;&gt;DashboardModule -->
<g id="edge19" class="edge">
<title>IgxLegendModule&#45;&gt;DashboardModule</title>
<path fill="none" stroke="black" d="M1284,-122.17C1284,-141.09 1284,-168 1284,-168 1284,-168 2167.6,-168 2167.6,-168"/>
<polygon fill="black" stroke="black" points="2167.6,-171.5 2177.6,-168 2167.6,-164.5 2167.6,-171.5"/>
</g>
<!-- IgxCategoryChartModule -->
<g id="node21" class="node">
<title>IgxCategoryChartModule</title>
<polygon fill="#8dd3c7" stroke="black" points="1206.13,-122 1203.13,-126 1182.13,-126 1179.13,-122 1045.87,-122 1045.87,-86 1206.13,-86 1206.13,-122"/>
<text text-anchor="middle" x="1126" y="-99.8" font-family="Times,serif" font-size="14.00">IgxCategoryChartModule</text>
</g>
<!-- IgxCategoryChartModule&#45;&gt;DashboardModule -->
<g id="edge20" class="edge">
<title>IgxCategoryChartModule&#45;&gt;DashboardModule</title>
<path fill="none" stroke="black" d="M1126,-122.31C1126,-142.15 1126,-171 1126,-171 1126,-171 2167.82,-171 2167.82,-171"/>
<polygon fill="black" stroke="black" points="2167.82,-174.5 2177.82,-171 2167.82,-167.5 2167.82,-174.5"/>
</g>
<!-- IgxDataChartInteractivityModule -->
<g id="node22" class="node">
<title>IgxDataChartInteractivityModule</title>
<polygon fill="#8dd3c7" stroke="black" points="1028.16,-122 1025.16,-126 1004.16,-126 1001.16,-122 823.84,-122 823.84,-86 1028.16,-86 1028.16,-122"/>
<text text-anchor="middle" x="926" y="-99.8" font-family="Times,serif" font-size="14.00">IgxDataChartInteractivityModule</text>
</g>
<!-- IgxDataChartInteractivityModule&#45;&gt;DashboardModule -->
<g id="edge21" class="edge">
<title>IgxDataChartInteractivityModule&#45;&gt;DashboardModule</title>
<path fill="none" stroke="black" d="M926,-122.03C926,-142.77 926,-174 926,-174 926,-174 2167.78,-174 2167.78,-174"/>
<polygon fill="black" stroke="black" points="2167.78,-177.5 2177.78,-174 2167.78,-170.5 2167.78,-177.5"/>
</g>
<!-- NgxSkeletonLoaderModule.forRoot(args) -->
<g id="node23" class="node">
<title>NgxSkeletonLoaderModule.forRoot(args)</title>
<polygon fill="#8dd3c7" stroke="black" points="805.98,-122 802.98,-126 781.98,-126 778.98,-122 554.02,-122 554.02,-86 805.98,-86 805.98,-122"/>
<text text-anchor="middle" x="680" y="-99.8" font-family="Times,serif" font-size="14.00">NgxSkeletonLoaderModule.forRoot(args)</text>
</g>
<!-- NgxSkeletonLoaderModule.forRoot(args)&#45;&gt;DashboardModule -->
<g id="edge22" class="edge">
<title>NgxSkeletonLoaderModule.forRoot(args)&#45;&gt;DashboardModule</title>
<path fill="none" stroke="black" d="M680,-122.17C680,-143.5 680,-176 680,-176 680,-176 2167.88,-176 2167.88,-176"/>
<polygon fill="black" stroke="black" points="2167.88,-179.5 2177.88,-176 2167.88,-172.5 2167.88,-179.5"/>
</g>
<!-- StoreModule.forFeature(args) -->
<g id="node24" class="node">
<title>StoreModule.forFeature(args)</title>
<polygon fill="#8dd3c7" stroke="black" points="535.54,-122 532.54,-126 511.54,-126 508.54,-122 352.46,-122 352.46,-86 535.54,-86 535.54,-122"/>
<text text-anchor="middle" x="444" y="-99.8" font-family="Times,serif" font-size="14.00">StoreModule.forFeature(args)</text>
</g>
<!-- StoreModule.forFeature(args)&#45;&gt;DashboardModule -->
<g id="edge23" class="edge">
<title>StoreModule.forFeature(args)&#45;&gt;DashboardModule</title>
<path fill="none" stroke="black" d="M444,-122.16C444,-144.35 444,-179 444,-179 444,-179 2167.8,-179 2167.8,-179"/>
<polygon fill="black" stroke="black" points="2167.8,-182.5 2177.8,-179 2167.8,-175.5 2167.8,-182.5"/>
</g>
<!-- EffectsModule.forFeature(args) -->
<g id="node25" class="node">
<title>EffectsModule.forFeature(args)</title>
<polygon fill="#8dd3c7" stroke="black" points="333.63,-122 330.63,-126 309.63,-126 306.63,-122 140.37,-122 140.37,-86 333.63,-86 333.63,-122"/>
<text text-anchor="middle" x="237" y="-99.8" font-family="Times,serif" font-size="14.00">EffectsModule.forFeature(args)</text>
</g>
<!-- EffectsModule.forFeature(args)&#45;&gt;DashboardModule -->
<g id="edge24" class="edge">
<title>EffectsModule.forFeature(args)&#45;&gt;DashboardModule</title>
<path fill="none" stroke="black" d="M237,-122.09C237,-145.13 237,-182 237,-182 237,-182 2167.84,-182 2167.84,-182"/>
<polygon fill="black" stroke="black" points="2167.84,-185.5 2177.84,-182 2167.84,-178.5 2167.84,-185.5"/>
</g>
<!-- SharedModule -->
<g id="node26" class="node">
<title>SharedModule</title>
<polygon fill="#8dd3c7" stroke="black" points="122.42,-122 119.42,-126 98.42,-126 95.42,-122 23.58,-122 23.58,-86 122.42,-86 122.42,-122"/>
<text text-anchor="middle" x="73" y="-99.8" font-family="Times,serif" font-size="14.00">SharedModule</text>
</g>
<!-- SharedModule&#45;&gt;DashboardModule -->
<g id="edge25" class="edge">
<title>SharedModule&#45;&gt;DashboardModule</title>
<path fill="none" stroke="black" d="M73,-122.38C73,-146.28 73,-185 73,-185 73,-185 2167.84,-185 2167.84,-185"/>
<polygon fill="black" stroke="black" points="2167.84,-188.5 2177.84,-185 2167.84,-181.5 2167.84,-188.5"/>
</g>
</g>
</svg>
