<?xml version="1.0" encoding="UTF-8" standalone="no"?>
<!DOCTYPE svg PUBLIC "-//W3C//DTD SVG 1.1//EN"
 "http://www.w3.org/Graphics/SVG/1.1/DTD/svg11.dtd">
<!-- Generated by graphviz version 2.47.0 (20210316.0004)
 -->
<!-- Title: dependencies Pages: 1 -->
<svg width="2769pt" height="211pt"
 viewBox="0.00 0.00 2769.00 211.00" xmlns="http://www.w3.org/2000/svg" xmlns:xlink="http://www.w3.org/1999/xlink">
<g id="graph0" class="graph" transform="scale(1 1) rotate(0) translate(4 207)">
<title>dependencies</title>
<polygon fill="white" stroke="transparent" points="-4,4 -4,-207 2765,-207 2765,4 -4,4"/>
<text text-anchor="start" x="1359.51" y="-42.4" font-family="Times-12" font-weight="bold" font-size="14.00">Legend</text>
<polygon fill="#ffffb3" stroke="transparent" points="1146.5,-10 1146.5,-30 1166.5,-30 1166.5,-10 1146.5,-10"/>
<text text-anchor="start" x="1170.13" y="-15.4" font-family="Times-12" font-size="14.00"> &#160;Declarations</text>
<polygon fill="#8dd3c7" stroke="transparent" points="1259.5,-10 1259.5,-30 1279.5,-30 1279.5,-10 1259.5,-10"/>
<text text-anchor="start" x="1283.23" y="-15.4" font-family="Times-12" font-size="14.00"> &#160;Module</text>
<polygon fill="#80b1d3" stroke="transparent" points="1345.5,-10 1345.5,-30 1365.5,-30 1365.5,-10 1345.5,-10"/>
<text text-anchor="start" x="1369.28" y="-15.4" font-family="Times-12" font-size="14.00"> &#160;Bootstrap</text>
<polygon fill="#fdb462" stroke="transparent" points="1442.5,-10 1442.5,-30 1462.5,-30 1462.5,-10 1442.5,-10"/>
<text text-anchor="start" x="1466.17" y="-15.4" font-family="Times-12" font-size="14.00"> &#160;Providers</text>
<polygon fill="#fb8072" stroke="transparent" points="1538.5,-10 1538.5,-30 1558.5,-30 1558.5,-10 1538.5,-10"/>
<text text-anchor="start" x="1562.23" y="-15.4" font-family="Times-12" font-size="14.00"> &#160;Exports</text>
<g id="clust1" class="cluster">
<title>cluster_DashboardModule</title>
<polygon fill="none" stroke="black" stroke-dasharray="1,5" points="8,-70 8,-195 2753,-195 2753,-70 8,-70"/>
</g>
<g id="clust18" class="cluster">
<title>cluster_DashboardModule_imports</title>
<polygon fill="none" stroke="black" points="2447,-78 2447,-130 2745,-130 2745,-78 2447,-78"/>
</g>
<g id="clust2" class="cluster">
<title>cluster_DashboardModule_declarations</title>
<polygon fill="none" stroke="black" points="16,-78 16,-130 2439,-130 2439,-78 16,-78"/>
</g>
<!-- AccountComponent -->
<g id="node1" class="node">
<title>AccountComponent</title>
<polygon fill="#ffffb3" stroke="black" points="2431.26,-122 2302.74,-122 2302.74,-86 2431.26,-86 2431.26,-122"/>
<text text-anchor="middle" x="2367" y="-99.8" font-family="Times,serif" font-size="14.00">AccountComponent</text>
</g>
<!-- DashboardModule -->
<g id="node16" class="node">
<title>DashboardModule</title>
<polygon fill="#8dd3c7" stroke="black" points="1475.19,-187 1472.19,-191 1451.19,-191 1448.19,-187 1354.81,-187 1354.81,-151 1475.19,-151 1475.19,-187"/>
<text text-anchor="middle" x="1415" y="-164.8" font-family="Times,serif" font-size="14.00">DashboardModule</text>
</g>
<!-- AccountComponent&#45;&gt;DashboardModule -->
<g id="edge1" class="edge">
<title>AccountComponent&#45;&gt;DashboardModule</title>
<path fill="none" stroke="black" d="M2367,-122.28C2367,-143.32 2367,-175 2367,-175 2367,-175 1485.27,-175 1485.27,-175"/>
<polygon fill="black" stroke="black" points="1485.27,-171.5 1475.27,-175 1485.27,-178.5 1485.27,-171.5"/>
</g>
<!-- AnalyticsComponent -->
<g id="node2" class="node">
<title>AnalyticsComponent</title>
<polygon fill="#ffffb3" stroke="black" points="2284.48,-122 2149.52,-122 2149.52,-86 2284.48,-86 2284.48,-122"/>
<text text-anchor="middle" x="2217" y="-99.8" font-family="Times,serif" font-size="14.00">AnalyticsComponent</text>
</g>
<!-- AnalyticsComponent&#45;&gt;DashboardModule -->
<g id="edge2" class="edge">
<title>AnalyticsComponent&#45;&gt;DashboardModule</title>
<path fill="none" stroke="black" d="M2217,-122.31C2217,-142.15 2217,-171 2217,-171 2217,-171 1485.28,-171 1485.28,-171"/>
<polygon fill="black" stroke="black" points="1485.28,-167.5 1475.28,-171 1485.28,-174.5 1485.28,-167.5"/>
</g>
<!-- AssetsManagementComponent -->
<g id="node3" class="node">
<title>AssetsManagementComponent</title>
<polygon fill="#ffffb3" stroke="black" points="2131.46,-122 1940.54,-122 1940.54,-86 2131.46,-86 2131.46,-122"/>
<text text-anchor="middle" x="2036" y="-99.8" font-family="Times,serif" font-size="14.00">AssetsManagementComponent</text>
</g>
<!-- AssetsManagementComponent&#45;&gt;DashboardModule -->
<g id="edge3" class="edge">
<title>AssetsManagementComponent&#45;&gt;DashboardModule</title>
<path fill="none" stroke="black" d="M2036,-122.22C2036,-140.83 2036,-167 2036,-167 2036,-167 1485.11,-167 1485.11,-167"/>
<polygon fill="black" stroke="black" points="1485.11,-163.5 1475.11,-167 1485.11,-170.5 1485.11,-163.5"/>
</g>
<!-- DashComponent -->
<g id="node4" class="node">
<title>DashComponent</title>
<polygon fill="#ffffb3" stroke="black" points="1922.1,-122 1811.9,-122 1811.9,-86 1922.1,-86 1922.1,-122"/>
<text text-anchor="middle" x="1867" y="-99.8" font-family="Times,serif" font-size="14.00">DashComponent</text>
</g>
<!-- DashComponent&#45;&gt;DashboardModule -->
<g id="edge4" class="edge">
<title>DashComponent&#45;&gt;DashboardModule</title>
<path fill="none" stroke="black" d="M1867,-122.02C1867,-139.37 1867,-163 1867,-163 1867,-163 1485.49,-163 1485.49,-163"/>
<polygon fill="black" stroke="black" points="1485.49,-159.5 1475.49,-163 1485.49,-166.5 1485.49,-159.5"/>
</g>
<!-- DashboardComponent -->
<g id="node5" class="node">
<title>DashboardComponent</title>
<polygon fill="#ffffb3" stroke="black" points="1793.97,-122 1652.03,-122 1652.03,-86 1793.97,-86 1793.97,-122"/>
<text text-anchor="middle" x="1723" y="-99.8" font-family="Times,serif" font-size="14.00">DashboardComponent</text>
</g>
<!-- DashboardComponent&#45;&gt;DashboardModule -->
<g id="edge5" class="edge">
<title>DashboardComponent&#45;&gt;DashboardModule</title>
<path fill="none" stroke="black" d="M1723,-122.01C1723,-138.05 1723,-159 1723,-159 1723,-159 1485.12,-159 1485.12,-159"/>
<polygon fill="black" stroke="black" points="1485.12,-155.5 1475.12,-159 1485.12,-162.5 1485.12,-155.5"/>
</g>
<!-- DriveInComponent -->
<g id="node6" class="node">
<title>DriveInComponent</title>
<polygon fill="#ffffb3" stroke="black" points="1634.37,-122 1509.63,-122 1509.63,-86 1634.37,-86 1634.37,-122"/>
<text text-anchor="middle" x="1572" y="-99.8" font-family="Times,serif" font-size="14.00">DriveInComponent</text>
</g>
<!-- DriveInComponent&#45;&gt;DashboardModule -->
<g id="edge6" class="edge">
<title>DriveInComponent&#45;&gt;DashboardModule</title>
<path fill="none" stroke="black" d="M1572,-122.12C1572,-136.78 1572,-155 1572,-155 1572,-155 1485.25,-155 1485.25,-155"/>
<polygon fill="black" stroke="black" points="1485.25,-151.5 1475.25,-155 1485.25,-158.5 1485.25,-151.5"/>
</g>
<!-- LinearGraphComponent -->
<g id="node7" class="node">
<title>LinearGraphComponent</title>
<polygon fill="#ffffb3" stroke="black" points="1491.35,-122 1338.65,-122 1338.65,-86 1491.35,-86 1491.35,-122"/>
<text text-anchor="middle" x="1415" y="-99.8" font-family="Times,serif" font-size="14.00">LinearGraphComponent</text>
</g>
<!-- LinearGraphComponent&#45;&gt;DashboardModule -->
<g id="edge7" class="edge">
<title>LinearGraphComponent&#45;&gt;DashboardModule</title>
<path fill="none" stroke="black" d="M1415,-122.11C1415,-122.11 1415,-140.99 1415,-140.99"/>
<polygon fill="black" stroke="black" points="1411.5,-140.99 1415,-150.99 1418.5,-140.99 1411.5,-140.99"/>
</g>
<!-- LogsComponent -->
<g id="node8" class="node">
<title>LogsComponent</title>
<polygon fill="#ffffb3" stroke="black" points="1320.83,-122 1211.17,-122 1211.17,-86 1320.83,-86 1320.83,-122"/>
<text text-anchor="middle" x="1266" y="-99.8" font-family="Times,serif" font-size="14.00">LogsComponent</text>
</g>
<!-- LogsComponent&#45;&gt;DashboardModule -->
<g id="edge8" class="edge">
<title>LogsComponent&#45;&gt;DashboardModule</title>
<path fill="none" stroke="black" d="M1266,-122.12C1266,-136.78 1266,-155 1266,-155 1266,-155 1344.83,-155 1344.83,-155"/>
<polygon fill="black" stroke="black" points="1344.83,-158.5 1354.83,-155 1344.83,-151.5 1344.83,-158.5"/>
</g>
<!-- MotoristManagementComponent -->
<g id="node9" class="node">
<title>MotoristManagementComponent</title>
<polygon fill="#ffffb3" stroke="black" points="1193.14,-122 990.86,-122 990.86,-86 1193.14,-86 1193.14,-122"/>
<text text-anchor="middle" x="1092" y="-99.8" font-family="Times,serif" font-size="14.00">MotoristManagementComponent</text>
</g>
<!-- MotoristManagementComponent&#45;&gt;DashboardModule -->
<g id="edge9" class="edge">
<title>MotoristManagementComponent&#45;&gt;DashboardModule</title>
<path fill="none" stroke="black" d="M1092,-122.01C1092,-138.05 1092,-159 1092,-159 1092,-159 1344.63,-159 1344.63,-159"/>
<polygon fill="black" stroke="black" points="1344.63,-162.5 1354.63,-159 1344.63,-155.5 1344.63,-162.5"/>
</g>
<!-- NotificationsComponent -->
<g id="node10" class="node">
<title>NotificationsComponent</title>
<polygon fill="#ffffb3" stroke="black" points="972.43,-122 817.57,-122 817.57,-86 972.43,-86 972.43,-122"/>
<text text-anchor="middle" x="895" y="-99.8" font-family="Times,serif" font-size="14.00">NotificationsComponent</text>
</g>
<!-- NotificationsComponent&#45;&gt;DashboardModule -->
<g id="edge10" class="edge">
<title>NotificationsComponent&#45;&gt;DashboardModule</title>
<path fill="none" stroke="black" d="M895,-122.02C895,-139.37 895,-163 895,-163 895,-163 1344.84,-163 1344.84,-163"/>
<polygon fill="black" stroke="black" points="1344.84,-166.5 1354.84,-163 1344.84,-159.5 1344.84,-166.5"/>
</g>
<!-- PremisesComponent -->
<g id="node11" class="node">
<title>PremisesComponent</title>
<polygon fill="#ffffb3" stroke="black" points="799.88,-122 668.12,-122 668.12,-86 799.88,-86 799.88,-122"/>
<text text-anchor="middle" x="734" y="-99.8" font-family="Times,serif" font-size="14.00">PremisesComponent</text>
</g>
<!-- PremisesComponent&#45;&gt;DashboardModule -->
<g id="edge11" class="edge">
<title>PremisesComponent&#45;&gt;DashboardModule</title>
<path fill="none" stroke="black" d="M734,-122.22C734,-140.83 734,-167 734,-167 734,-167 1344.86,-167 1344.86,-167"/>
<polygon fill="black" stroke="black" points="1344.86,-170.5 1354.86,-167 1344.86,-163.5 1344.86,-170.5"/>
</g>
<!-- RevenuesComponent -->
<g id="node12" class="node">
<title>RevenuesComponent</title>
<polygon fill="#ffffb3" stroke="black" points="649.76,-122 514.24,-122 514.24,-86 649.76,-86 649.76,-122"/>
<text text-anchor="middle" x="582" y="-99.8" font-family="Times,serif" font-size="14.00">RevenuesComponent</text>
</g>
<!-- RevenuesComponent&#45;&gt;DashboardModule -->
<g id="edge12" class="edge">
<title>RevenuesComponent&#45;&gt;DashboardModule</title>
<path fill="none" stroke="black" d="M582,-122.31C582,-142.15 582,-171 582,-171 582,-171 1344.76,-171 1344.76,-171"/>
<polygon fill="black" stroke="black" points="1344.76,-174.5 1354.76,-171 1344.76,-167.5 1344.76,-174.5"/>
</g>
<!-- SettingsComponent -->
<g id="node13" class="node">
<title>SettingsComponent</title>
<polygon fill="#ffffb3" stroke="black" points="496.45,-122 369.55,-122 369.55,-86 496.45,-86 496.45,-122"/>
<text text-anchor="middle" x="433" y="-99.8" font-family="Times,serif" font-size="14.00">SettingsComponent</text>
</g>
<!-- SettingsComponent&#45;&gt;DashboardModule -->
<g id="edge13" class="edge">
<title>SettingsComponent&#45;&gt;DashboardModule</title>
<path fill="none" stroke="black" d="M433,-122.28C433,-143.32 433,-175 433,-175 433,-175 1344.68,-175 1344.68,-175"/>
<polygon fill="black" stroke="black" points="1344.68,-178.5 1354.68,-175 1344.68,-171.5 1344.68,-178.5"/>
</g>
<!-- SideNavComponent -->
<g id="node14" class="node">
<title>SideNavComponent</title>
<polygon fill="#ffffb3" stroke="black" points="351.54,-122 222.46,-122 222.46,-86 351.54,-86 351.54,-122"/>
<text text-anchor="middle" x="287" y="-99.8" font-family="Times,serif" font-size="14.00">SideNavComponent</text>
</g>
<!-- SideNavComponent&#45;&gt;DashboardModule -->
<g id="edge14" class="edge">
<title>SideNavComponent&#45;&gt;DashboardModule</title>
<path fill="none" stroke="black" d="M287,-122.16C287,-144.35 287,-179 287,-179 287,-179 1344.75,-179 1344.75,-179"/>
<polygon fill="black" stroke="black" points="1344.75,-182.5 1354.75,-179 1344.75,-175.5 1344.75,-182.5"/>
</g>
<!-- UserManagementComponent -->
<g id="node15" class="node">
<title>UserManagementComponent</title>
<polygon fill="#ffffb3" stroke="black" points="204.34,-122 23.66,-122 23.66,-86 204.34,-86 204.34,-122"/>
<text text-anchor="middle" x="114" y="-99.8" font-family="Times,serif" font-size="14.00">UserManagementComponent</text>
</g>
<!-- UserManagementComponent&#45;&gt;DashboardModule -->
<g id="edge15" class="edge">
<title>UserManagementComponent&#45;&gt;DashboardModule</title>
<path fill="none" stroke="black" d="M114,-122.32C114,-145.66 114,-183 114,-183 114,-183 1344.86,-183 1344.86,-183"/>
<polygon fill="black" stroke="black" points="1344.86,-186.5 1354.86,-183 1344.86,-179.5 1344.86,-186.5"/>
</g>
<!-- DashboardRoutingModule -->
<g id="node17" class="node">
<title>DashboardRoutingModule</title>
<polygon fill="#8dd3c7" stroke="black" points="2736.81,-122 2733.81,-126 2712.81,-126 2709.81,-122 2571.19,-122 2571.19,-86 2736.81,-86 2736.81,-122"/>
<text text-anchor="middle" x="2654" y="-99.8" font-family="Times,serif" font-size="14.00">DashboardRoutingModule</text>
</g>
<!-- DashboardRoutingModule&#45;&gt;DashboardModule -->
<g id="edge16" class="edge">
<title>DashboardRoutingModule&#45;&gt;DashboardModule</title>
<path fill="none" stroke="black" d="M2654,-122.32C2654,-145.66 2654,-183 2654,-183 2654,-183 1485.18,-183 1485.18,-183"/>
<polygon fill="black" stroke="black" points="1485.18,-179.5 1475.18,-183 1485.18,-186.5 1485.18,-179.5"/>
</g>
<!-- SharedModule -->
<g id="node18" class="node">
<title>SharedModule</title>
<polygon fill="#8dd3c7" stroke="black" points="2553.42,-122 2550.42,-126 2529.42,-126 2526.42,-122 2454.58,-122 2454.58,-86 2553.42,-86 2553.42,-122"/>
<text text-anchor="middle" x="2504" y="-99.8" font-family="Times,serif" font-size="14.00">SharedModule</text>
</g>
<!-- SharedModule&#45;&gt;DashboardModule -->
<g id="edge17" class="edge">
<title>SharedModule&#45;&gt;DashboardModule</title>
<path fill="none" stroke="black" d="M2504,-122.16C2504,-144.35 2504,-179 2504,-179 2504,-179 1485.1,-179 1485.1,-179"/>
<polygon fill="black" stroke="black" points="1485.1,-175.5 1475.1,-179 1485.1,-182.5 1485.1,-175.5"/>
</g>
</g>
</svg>
