<?xml version="1.0" encoding="UTF-8" standalone="no"?>
<!DOCTYPE svg PUBLIC "-//W3C//DTD SVG 1.1//EN"
 "http://www.w3.org/Graphics/SVG/1.1/DTD/svg11.dtd">
<!-- Generated by graphviz version 2.47.0 (20210316.0004)
 -->
<!-- Title: dependencies Pages: 1 -->
<svg width="1044pt" height="211pt"
 viewBox="0.00 0.00 1044.00 211.00" xmlns="http://www.w3.org/2000/svg" xmlns:xlink="http://www.w3.org/1999/xlink">
<g id="graph0" class="graph" transform="scale(1 1) rotate(0) translate(4 207)">
<title>dependencies</title>
<polygon fill="white" stroke="transparent" points="-4,4 -4,-207 1040,-207 1040,4 -4,4"/>
<text text-anchor="start" x="497.01" y="-42.4" font-family="Times-12" font-weight="bold" font-size="14.00">Legend</text>
<polygon fill="#ffffb3" stroke="transparent" points="284,-10 284,-30 304,-30 304,-10 284,-10"/>
<text text-anchor="start" x="307.63" y="-15.4" font-family="Times-12" font-size="14.00"> &#160;Declarations</text>
<polygon fill="#8dd3c7" stroke="transparent" points="397,-10 397,-30 417,-30 417,-10 397,-10"/>
<text text-anchor="start" x="420.73" y="-15.4" font-family="Times-12" font-size="14.00"> &#160;Module</text>
<polygon fill="#80b1d3" stroke="transparent" points="483,-10 483,-30 503,-30 503,-10 483,-10"/>
<text text-anchor="start" x="506.78" y="-15.4" font-family="Times-12" font-size="14.00"> &#160;Bootstrap</text>
<polygon fill="#fdb462" stroke="transparent" points="580,-10 580,-30 600,-30 600,-10 580,-10"/>
<text text-anchor="start" x="603.67" y="-15.4" font-family="Times-12" font-size="14.00"> &#160;Providers</text>
<polygon fill="#fb8072" stroke="transparent" points="676,-10 676,-30 696,-30 696,-10 676,-10"/>
<text text-anchor="start" x="699.73" y="-15.4" font-family="Times-12" font-size="14.00"> &#160;Exports</text>
<g id="clust1" class="cluster">
<title>cluster_AuthModule</title>
<polygon fill="none" stroke="black" stroke-dasharray="1,5" points="8,-70 8,-195 1028,-195 1028,-70 8,-70"/>
</g>
<g id="clust9" class="cluster">
<title>cluster_AuthModule_imports</title>
<polygon fill="none" stroke="black" points="872,-78 872,-130 1020,-130 1020,-78 872,-78"/>
</g>
<g id="clust2" class="cluster">
<title>cluster_AuthModule_declarations</title>
<polygon fill="none" stroke="black" points="16,-78 16,-130 864,-130 864,-78 16,-78"/>
</g>
<!-- AuthComponent -->
<g id="node1" class="node">
<title>AuthComponent</title>
<polygon fill="#ffffb3" stroke="black" points="855.83,-122 746.17,-122 746.17,-86 855.83,-86 855.83,-122"/>
<text text-anchor="middle" x="801" y="-99.8" font-family="Times,serif" font-size="14.00">AuthComponent</text>
</g>
<!-- AuthModule -->
<g id="node7" class="node">
<title>AuthModule</title>
<polygon fill="#8dd3c7" stroke="black" points="536.55,-187 533.55,-191 512.55,-191 509.55,-187 449.45,-187 449.45,-151 536.55,-151 536.55,-187"/>
<text text-anchor="middle" x="493" y="-164.8" font-family="Times,serif" font-size="14.00">AuthModule</text>
</g>
<!-- AuthComponent&#45;&gt;AuthModule -->
<g id="edge1" class="edge">
<title>AuthComponent&#45;&gt;AuthModule</title>
<path fill="none" stroke="black" d="M801,-122.11C801,-141.34 801,-169 801,-169 801,-169 546.8,-169 546.8,-169"/>
<polygon fill="black" stroke="black" points="546.8,-165.5 536.8,-169 546.8,-172.5 546.8,-165.5"/>
</g>
<!-- ConfirmResetComponent -->
<g id="node2" class="node">
<title>ConfirmResetComponent</title>
<polygon fill="#ffffb3" stroke="black" points="727.87,-122 568.13,-122 568.13,-86 727.87,-86 727.87,-122"/>
<text text-anchor="middle" x="648" y="-99.8" font-family="Times,serif" font-size="14.00">ConfirmResetComponent</text>
</g>
<!-- ConfirmResetComponent&#45;&gt;AuthModule -->
<g id="edge2" class="edge">
<title>ConfirmResetComponent&#45;&gt;AuthModule</title>
<path fill="none" stroke="black" d="M648,-122.03C648,-138.4 648,-160 648,-160 648,-160 546.59,-160 546.59,-160"/>
<polygon fill="black" stroke="black" points="546.59,-156.5 536.59,-160 546.59,-163.5 546.59,-156.5"/>
</g>
<!-- LoginComponent -->
<g id="node3" class="node">
<title>LoginComponent</title>
<polygon fill="#ffffb3" stroke="black" points="550.28,-122 435.72,-122 435.72,-86 550.28,-86 550.28,-122"/>
<text text-anchor="middle" x="493" y="-99.8" font-family="Times,serif" font-size="14.00">LoginComponent</text>
</g>
<!-- LoginComponent&#45;&gt;AuthModule -->
<g id="edge3" class="edge">
<title>LoginComponent&#45;&gt;AuthModule</title>
<path fill="none" stroke="black" d="M493,-122.11C493,-122.11 493,-140.99 493,-140.99"/>
<polygon fill="black" stroke="black" points="489.5,-140.99 493,-150.99 496.5,-140.99 489.5,-140.99"/>
</g>
<!-- RegisterComponent -->
<g id="node4" class="node">
<title>RegisterComponent</title>
<polygon fill="#ffffb3" stroke="black" points="417.98,-122 290.02,-122 290.02,-86 417.98,-86 417.98,-122"/>
<text text-anchor="middle" x="354" y="-99.8" font-family="Times,serif" font-size="14.00">RegisterComponent</text>
</g>
<!-- RegisterComponent&#45;&gt;AuthModule -->
<g id="edge4" class="edge">
<title>RegisterComponent&#45;&gt;AuthModule</title>
<path fill="none" stroke="black" d="M354,-122.03C354,-138.4 354,-160 354,-160 354,-160 439.4,-160 439.4,-160"/>
<polygon fill="black" stroke="black" points="439.4,-163.5 449.4,-160 439.4,-156.5 439.4,-163.5"/>
</g>
<!-- ResetComponent -->
<g id="node5" class="node">
<title>ResetComponent</title>
<polygon fill="#ffffb3" stroke="black" points="272.43,-122 159.57,-122 159.57,-86 272.43,-86 272.43,-122"/>
<text text-anchor="middle" x="216" y="-99.8" font-family="Times,serif" font-size="14.00">ResetComponent</text>
</g>
<!-- ResetComponent&#45;&gt;AuthModule -->
<g id="edge5" class="edge">
<title>ResetComponent&#45;&gt;AuthModule</title>
<path fill="none" stroke="black" d="M216,-122.11C216,-141.34 216,-169 216,-169 216,-169 439.41,-169 439.41,-169"/>
<polygon fill="black" stroke="black" points="439.41,-172.5 449.41,-169 439.41,-165.5 439.41,-172.5"/>
</g>
<!-- VerifyComponent -->
<g id="node6" class="node">
<title>VerifyComponent</title>
<polygon fill="#ffffb3" stroke="black" points="141.87,-122 24.13,-122 24.13,-86 141.87,-86 141.87,-122"/>
<text text-anchor="middle" x="83" y="-99.8" font-family="Times,serif" font-size="14.00">VerifyComponent</text>
</g>
<!-- VerifyComponent&#45;&gt;AuthModule -->
<g id="edge6" class="edge">
<title>VerifyComponent&#45;&gt;AuthModule</title>
<path fill="none" stroke="black" d="M83,-122.29C83,-144.21 83,-178 83,-178 83,-178 439.12,-178 439.12,-178"/>
<polygon fill="black" stroke="black" points="439.12,-181.5 449.12,-178 439.12,-174.5 439.12,-181.5"/>
</g>
<!-- AuthRoutingModule -->
<g id="node8" class="node">
<title>AuthRoutingModule</title>
<polygon fill="#8dd3c7" stroke="black" points="1012.17,-122 1009.17,-126 988.17,-126 985.17,-122 879.83,-122 879.83,-86 1012.17,-86 1012.17,-122"/>
<text text-anchor="middle" x="946" y="-99.8" font-family="Times,serif" font-size="14.00">AuthRoutingModule</text>
</g>
<!-- AuthRoutingModule&#45;&gt;AuthModule -->
<g id="edge7" class="edge">
<title>AuthRoutingModule&#45;&gt;AuthModule</title>
<path fill="none" stroke="black" d="M946,-122.29C946,-144.21 946,-178 946,-178 946,-178 546.85,-178 546.85,-178"/>
<polygon fill="black" stroke="black" points="546.85,-174.5 536.85,-178 546.85,-181.5 546.85,-174.5"/>
</g>
</g>
</svg>
