<?xml version="1.0" encoding="UTF-8" standalone="no"?>
<!DOCTYPE svg PUBLIC "-//W3C//DTD SVG 1.1//EN"
 "http://www.w3.org/Graphics/SVG/1.1/DTD/svg11.dtd">
<!-- Generated by graphviz version 2.47.0 (20210316.0004)
 -->
<!-- Title: dependencies Pages: 1 -->
<svg width="1750pt" height="211pt"
 viewBox="0.00 0.00 1750.00 211.00" xmlns="http://www.w3.org/2000/svg" xmlns:xlink="http://www.w3.org/1999/xlink">
<g id="graph0" class="graph" transform="scale(1 1) rotate(0) translate(4 207)">
<title>dependencies</title>
<polygon fill="white" stroke="transparent" points="-4,4 -4,-207 1746,-207 1746,4 -4,4"/>
<text text-anchor="start" x="850.01" y="-42.4" font-family="Times-12" font-weight="bold" font-size="14.00">Legend</text>
<polygon fill="#ffffb3" stroke="transparent" points="637,-10 637,-30 657,-30 657,-10 637,-10"/>
<text text-anchor="start" x="660.63" y="-15.4" font-family="Times-12" font-size="14.00"> &#160;Declarations</text>
<polygon fill="#8dd3c7" stroke="transparent" points="750,-10 750,-30 770,-30 770,-10 750,-10"/>
<text text-anchor="start" x="773.73" y="-15.4" font-family="Times-12" font-size="14.00"> &#160;Module</text>
<polygon fill="#80b1d3" stroke="transparent" points="836,-10 836,-30 856,-30 856,-10 836,-10"/>
<text text-anchor="start" x="859.78" y="-15.4" font-family="Times-12" font-size="14.00"> &#160;Bootstrap</text>
<polygon fill="#fdb462" stroke="transparent" points="933,-10 933,-30 953,-30 953,-10 933,-10"/>
<text text-anchor="start" x="956.67" y="-15.4" font-family="Times-12" font-size="14.00"> &#160;Providers</text>
<polygon fill="#fb8072" stroke="transparent" points="1029,-10 1029,-30 1049,-30 1049,-10 1029,-10"/>
<text text-anchor="start" x="1052.73" y="-15.4" font-family="Times-12" font-size="14.00"> &#160;Exports</text>
<g id="clust1" class="cluster">
<title>cluster_AuthModule</title>
<polygon fill="none" stroke="black" stroke-dasharray="1,5" points="8,-70 8,-195 1734,-195 1734,-70 8,-70"/>
</g>
<g id="clust2" class="cluster">
<title>cluster_AuthModule_declarations</title>
<polygon fill="none" stroke="black" points="878,-78 878,-130 1726,-130 1726,-78 878,-78"/>
</g>
<g id="clust9" class="cluster">
<title>cluster_AuthModule_imports</title>
<polygon fill="none" stroke="black" points="16,-78 16,-130 870,-130 870,-78 16,-78"/>
</g>
<!-- LoginComponent -->
<g id="node1" class="node">
<title>LoginComponent</title>
<polygon fill="#ffffb3" stroke="black" points="1718.28,-122 1603.72,-122 1603.72,-86 1718.28,-86 1718.28,-122"/>
<text text-anchor="middle" x="1661" y="-99.8" font-family="Times,serif" font-size="14.00">LoginComponent</text>
</g>
<!-- AuthModule -->
<g id="node7" class="node">
<title>AuthModule</title>
<polygon fill="#8dd3c7" stroke="black" points="984.55,-187 981.55,-191 960.55,-191 957.55,-187 897.45,-187 897.45,-151 984.55,-151 984.55,-187"/>
<text text-anchor="middle" x="941" y="-164.8" font-family="Times,serif" font-size="14.00">AuthModule</text>
</g>
<!-- LoginComponent&#45;&gt;AuthModule -->
<g id="edge1" class="edge">
<title>LoginComponent&#45;&gt;AuthModule</title>
<path fill="none" stroke="black" d="M1661,-122.09C1661,-145.13 1661,-182 1661,-182 1661,-182 994.69,-182 994.69,-182"/>
<polygon fill="black" stroke="black" points="994.69,-178.5 984.69,-182 994.69,-185.5 994.69,-178.5"/>
</g>
<!-- RegisterComponent -->
<g id="node2" class="node">
<title>RegisterComponent</title>
<polygon fill="#ffffb3" stroke="black" points="1585.98,-122 1458.02,-122 1458.02,-86 1585.98,-86 1585.98,-122"/>
<text text-anchor="middle" x="1522" y="-99.8" font-family="Times,serif" font-size="14.00">RegisterComponent</text>
</g>
<!-- RegisterComponent&#45;&gt;AuthModule -->
<g id="edge2" class="edge">
<title>RegisterComponent&#45;&gt;AuthModule</title>
<path fill="none" stroke="black" d="M1522,-122.28C1522,-143.32 1522,-175 1522,-175 1522,-175 994.67,-175 994.67,-175"/>
<polygon fill="black" stroke="black" points="994.67,-171.5 984.67,-175 994.67,-178.5 994.67,-171.5"/>
</g>
<!-- VerifyComponent -->
<g id="node3" class="node">
<title>VerifyComponent</title>
<polygon fill="#ffffb3" stroke="black" points="1439.87,-122 1322.13,-122 1322.13,-86 1439.87,-86 1439.87,-122"/>
<text text-anchor="middle" x="1381" y="-99.8" font-family="Times,serif" font-size="14.00">VerifyComponent</text>
</g>
<!-- VerifyComponent&#45;&gt;AuthModule -->
<g id="edge3" class="edge">
<title>VerifyComponent&#45;&gt;AuthModule</title>
<path fill="none" stroke="black" d="M1381,-122.11C1381,-141.34 1381,-169 1381,-169 1381,-169 994.8,-169 994.8,-169"/>
<polygon fill="black" stroke="black" points="994.8,-165.5 984.8,-169 994.8,-172.5 994.8,-165.5"/>
</g>
<!-- ResetComponent -->
<g id="node4" class="node">
<title>ResetComponent</title>
<polygon fill="#ffffb3" stroke="black" points="1304.43,-122 1191.57,-122 1191.57,-86 1304.43,-86 1304.43,-122"/>
<text text-anchor="middle" x="1248" y="-99.8" font-family="Times,serif" font-size="14.00">ResetComponent</text>
</g>
<!-- ResetComponent&#45;&gt;AuthModule -->
<g id="edge4" class="edge">
<title>ResetComponent&#45;&gt;AuthModule</title>
<path fill="none" stroke="black" d="M1248,-122.02C1248,-139.37 1248,-163 1248,-163 1248,-163 994.66,-163 994.66,-163"/>
<polygon fill="black" stroke="black" points="994.66,-159.5 984.66,-163 994.66,-166.5 994.66,-159.5"/>
</g>
<!-- ConfirmResetComponent -->
<g id="node5" class="node">
<title>ConfirmResetComponent</title>
<polygon fill="#ffffb3" stroke="black" points="1173.87,-122 1014.13,-122 1014.13,-86 1173.87,-86 1173.87,-122"/>
<text text-anchor="middle" x="1094" y="-99.8" font-family="Times,serif" font-size="14.00">ConfirmResetComponent</text>
</g>
<!-- ConfirmResetComponent&#45;&gt;AuthModule -->
<g id="edge5" class="edge">
<title>ConfirmResetComponent&#45;&gt;AuthModule</title>
<path fill="none" stroke="black" d="M1094,-122.24C1094,-137.57 1094,-157 1094,-157 1094,-157 994.84,-157 994.84,-157"/>
<polygon fill="black" stroke="black" points="994.84,-153.5 984.84,-157 994.84,-160.5 994.84,-153.5"/>
</g>
<!-- AuthComponent -->
<g id="node6" class="node">
<title>AuthComponent</title>
<polygon fill="#ffffb3" stroke="black" points="995.83,-122 886.17,-122 886.17,-86 995.83,-86 995.83,-122"/>
<text text-anchor="middle" x="941" y="-99.8" font-family="Times,serif" font-size="14.00">AuthComponent</text>
</g>
<!-- AuthComponent&#45;&gt;AuthModule -->
<g id="edge6" class="edge">
<title>AuthComponent&#45;&gt;AuthModule</title>
<path fill="none" stroke="black" d="M941,-122.11C941,-122.11 941,-140.99 941,-140.99"/>
<polygon fill="black" stroke="black" points="937.5,-140.99 941,-150.99 944.5,-140.99 937.5,-140.99"/>
</g>
<!-- CommonModule -->
<g id="node8" class="node">
<title>CommonModule</title>
<polygon fill="#8dd3c7" stroke="black" points="861.67,-122 858.67,-126 837.67,-126 834.67,-122 750.33,-122 750.33,-86 861.67,-86 861.67,-122"/>
<text text-anchor="middle" x="806" y="-99.8" font-family="Times,serif" font-size="14.00">CommonModule</text>
</g>
<!-- CommonModule&#45;&gt;AuthModule -->
<g id="edge7" class="edge">
<title>CommonModule&#45;&gt;AuthModule</title>
<path fill="none" stroke="black" d="M806,-122.24C806,-137.57 806,-157 806,-157 806,-157 887.17,-157 887.17,-157"/>
<polygon fill="black" stroke="black" points="887.17,-160.5 897.17,-157 887.17,-153.5 887.17,-160.5"/>
</g>
<!-- AuthRoutingModule -->
<g id="node9" class="node">
<title>AuthRoutingModule</title>
<polygon fill="#8dd3c7" stroke="black" points="732.17,-122 729.17,-126 708.17,-126 705.17,-122 599.83,-122 599.83,-86 732.17,-86 732.17,-122"/>
<text text-anchor="middle" x="666" y="-99.8" font-family="Times,serif" font-size="14.00">AuthRoutingModule</text>
</g>
<!-- AuthRoutingModule&#45;&gt;AuthModule -->
<g id="edge8" class="edge">
<title>AuthRoutingModule&#45;&gt;AuthModule</title>
<path fill="none" stroke="black" d="M666,-122.02C666,-139.37 666,-163 666,-163 666,-163 887.43,-163 887.43,-163"/>
<polygon fill="black" stroke="black" points="887.43,-166.5 897.43,-163 887.43,-159.5 887.43,-166.5"/>
</g>
<!-- ReactiveFormsModule -->
<g id="node10" class="node">
<title>ReactiveFormsModule</title>
<polygon fill="#8dd3c7" stroke="black" points="582.3,-122 579.3,-126 558.3,-126 555.3,-122 437.7,-122 437.7,-86 582.3,-86 582.3,-122"/>
<text text-anchor="middle" x="510" y="-99.8" font-family="Times,serif" font-size="14.00">ReactiveFormsModule</text>
</g>
<!-- ReactiveFormsModule&#45;&gt;AuthModule -->
<g id="edge9" class="edge">
<title>ReactiveFormsModule&#45;&gt;AuthModule</title>
<path fill="none" stroke="black" d="M510,-122.11C510,-141.34 510,-169 510,-169 510,-169 887.3,-169 887.3,-169"/>
<polygon fill="black" stroke="black" points="887.3,-172.5 897.3,-169 887.3,-165.5 887.3,-172.5"/>
</g>
<!-- StoreModule.forFeature(args) -->
<g id="node11" class="node">
<title>StoreModule.forFeature(args)</title>
<polygon fill="#8dd3c7" stroke="black" points="419.54,-122 416.54,-126 395.54,-126 392.54,-122 236.46,-122 236.46,-86 419.54,-86 419.54,-122"/>
<text text-anchor="middle" x="328" y="-99.8" font-family="Times,serif" font-size="14.00">StoreModule.forFeature(args)</text>
</g>
<!-- StoreModule.forFeature(args)&#45;&gt;AuthModule -->
<g id="edge10" class="edge">
<title>StoreModule.forFeature(args)&#45;&gt;AuthModule</title>
<path fill="none" stroke="black" d="M328,-122.28C328,-143.32 328,-175 328,-175 328,-175 887.41,-175 887.41,-175"/>
<polygon fill="black" stroke="black" points="887.41,-178.5 897.41,-175 887.41,-171.5 887.41,-178.5"/>
</g>
<!-- EffectsModule.forFeature(args) -->
<g id="node12" class="node">
<title>EffectsModule.forFeature(args)</title>
<polygon fill="#8dd3c7" stroke="black" points="217.63,-122 214.63,-126 193.63,-126 190.63,-122 24.37,-122 24.37,-86 217.63,-86 217.63,-122"/>
<text text-anchor="middle" x="121" y="-99.8" font-family="Times,serif" font-size="14.00">EffectsModule.forFeature(args)</text>
</g>
<!-- EffectsModule.forFeature(args)&#45;&gt;AuthModule -->
<g id="edge11" class="edge">
<title>EffectsModule.forFeature(args)&#45;&gt;AuthModule</title>
<path fill="none" stroke="black" d="M121,-122.09C121,-145.13 121,-182 121,-182 121,-182 887.2,-182 887.2,-182"/>
<polygon fill="black" stroke="black" points="887.2,-185.5 897.2,-182 887.2,-178.5 887.2,-185.5"/>
</g>
</g>
</svg>
