<?xml version="1.0" encoding="UTF-8" standalone="no"?>
<!DOCTYPE svg PUBLIC "-//W3C//DTD SVG 1.1//EN"
 "http://www.w3.org/Graphics/SVG/1.1/DTD/svg11.dtd">
<!-- Generated by graphviz version 2.47.0 (20210316.0004)
 -->
<!-- Title: dependencies Pages: 1 -->
<svg width="1912pt" height="211pt"
 viewBox="0.00 0.00 1912.00 211.00" xmlns="http://www.w3.org/2000/svg" xmlns:xlink="http://www.w3.org/1999/xlink">
<g id="graph0" class="graph" transform="scale(1 1) rotate(0) translate(4 207)">
<title>dependencies</title>
<polygon fill="white" stroke="transparent" points="-4,4 -4,-207 1908,-207 1908,4 -4,4"/>
<text text-anchor="start" x="931.01" y="-42.4" font-family="Times-12" font-weight="bold" font-size="14.00">Legend</text>
<polygon fill="#ffffb3" stroke="transparent" points="718,-10 718,-30 738,-30 738,-10 718,-10"/>
<text text-anchor="start" x="741.63" y="-15.4" font-family="Times-12" font-size="14.00"> &#160;Declarations</text>
<polygon fill="#8dd3c7" stroke="transparent" points="831,-10 831,-30 851,-30 851,-10 831,-10"/>
<text text-anchor="start" x="854.73" y="-15.4" font-family="Times-12" font-size="14.00"> &#160;Module</text>
<polygon fill="#80b1d3" stroke="transparent" points="917,-10 917,-30 937,-30 937,-10 917,-10"/>
<text text-anchor="start" x="940.78" y="-15.4" font-family="Times-12" font-size="14.00"> &#160;Bootstrap</text>
<polygon fill="#fdb462" stroke="transparent" points="1014,-10 1014,-30 1034,-30 1034,-10 1014,-10"/>
<text text-anchor="start" x="1037.67" y="-15.4" font-family="Times-12" font-size="14.00"> &#160;Providers</text>
<polygon fill="#fb8072" stroke="transparent" points="1110,-10 1110,-30 1130,-30 1130,-10 1110,-10"/>
<text text-anchor="start" x="1133.73" y="-15.4" font-family="Times-12" font-size="14.00"> &#160;Exports</text>
<g id="clust1" class="cluster">
<title>cluster_HomeModule</title>
<polygon fill="none" stroke="black" stroke-dasharray="1,5" points="8,-70 8,-195 1896,-195 1896,-70 8,-70"/>
</g>
<g id="clust14" class="cluster">
<title>cluster_HomeModule_imports</title>
<polygon fill="none" stroke="black" points="1617,-78 1617,-130 1888,-130 1888,-78 1617,-78"/>
</g>
<g id="clust2" class="cluster">
<title>cluster_HomeModule_declarations</title>
<polygon fill="none" stroke="black" points="16,-78 16,-130 1609,-130 1609,-78 16,-78"/>
</g>
<!-- AboutComponent -->
<g id="node1" class="node">
<title>AboutComponent</title>
<polygon fill="#ffffb3" stroke="black" points="1601.33,-122 1484.67,-122 1484.67,-86 1601.33,-86 1601.33,-122"/>
<text text-anchor="middle" x="1543" y="-99.8" font-family="Times,serif" font-size="14.00">AboutComponent</text>
</g>
<!-- HomeModule -->
<g id="node12" class="node">
<title>HomeModule</title>
<polygon fill="#8dd3c7" stroke="black" points="997.76,-187 994.76,-191 973.76,-191 970.76,-187 904.24,-187 904.24,-151 997.76,-151 997.76,-187"/>
<text text-anchor="middle" x="951" y="-164.8" font-family="Times,serif" font-size="14.00">HomeModule</text>
</g>
<!-- AboutComponent&#45;&gt;HomeModule -->
<g id="edge1" class="edge">
<title>AboutComponent&#45;&gt;HomeModule</title>
<path fill="none" stroke="black" d="M1543,-122.22C1543,-142.37 1543,-172 1543,-172 1543,-172 1007.95,-172 1007.95,-172"/>
<polygon fill="black" stroke="black" points="1007.95,-168.5 997.95,-172 1007.95,-175.5 1007.95,-168.5"/>
</g>
<!-- BlogComponent -->
<g id="node2" class="node">
<title>BlogComponent</title>
<polygon fill="#ffffb3" stroke="black" points="1467.06,-122 1358.94,-122 1358.94,-86 1467.06,-86 1467.06,-122"/>
<text text-anchor="middle" x="1413" y="-99.8" font-family="Times,serif" font-size="14.00">BlogComponent</text>
</g>
<!-- BlogComponent&#45;&gt;HomeModule -->
<g id="edge2" class="edge">
<title>BlogComponent&#45;&gt;HomeModule</title>
<path fill="none" stroke="black" d="M1413,-122.22C1413,-140.83 1413,-167 1413,-167 1413,-167 1007.84,-167 1007.84,-167"/>
<polygon fill="black" stroke="black" points="1007.84,-163.5 997.84,-167 1007.84,-170.5 1007.84,-163.5"/>
</g>
<!-- BlogCreateComponent -->
<g id="node3" class="node">
<title>BlogCreateComponent</title>
<polygon fill="#ffffb3" stroke="black" points="1340.59,-122 1195.41,-122 1195.41,-86 1340.59,-86 1340.59,-122"/>
<text text-anchor="middle" x="1268" y="-99.8" font-family="Times,serif" font-size="14.00">BlogCreateComponent</text>
</g>
<!-- BlogCreateComponent&#45;&gt;HomeModule -->
<g id="edge3" class="edge">
<title>BlogCreateComponent&#45;&gt;HomeModule</title>
<path fill="none" stroke="black" d="M1268,-122.03C1268,-139.06 1268,-162 1268,-162 1268,-162 1007.77,-162 1007.77,-162"/>
<polygon fill="black" stroke="black" points="1007.77,-158.5 997.77,-162 1007.77,-165.5 1007.77,-158.5"/>
</g>
<!-- BlogDetailComponent -->
<g id="node4" class="node">
<title>BlogDetailComponent</title>
<polygon fill="#ffffb3" stroke="black" points="1177.27,-122 1034.73,-122 1034.73,-86 1177.27,-86 1177.27,-122"/>
<text text-anchor="middle" x="1106" y="-99.8" font-family="Times,serif" font-size="14.00">BlogDetailComponent</text>
</g>
<!-- BlogDetailComponent&#45;&gt;HomeModule -->
<g id="edge4" class="edge">
<title>BlogDetailComponent&#45;&gt;HomeModule</title>
<path fill="none" stroke="black" d="M1106,-122.24C1106,-137.57 1106,-157 1106,-157 1106,-157 1007.93,-157 1007.93,-157"/>
<polygon fill="black" stroke="black" points="1007.93,-153.5 997.93,-157 1007.93,-160.5 1007.93,-153.5"/>
</g>
<!-- BlogListComponent -->
<g id="node5" class="node">
<title>BlogListComponent</title>
<polygon fill="#ffffb3" stroke="black" points="1016.34,-122 885.66,-122 885.66,-86 1016.34,-86 1016.34,-122"/>
<text text-anchor="middle" x="951" y="-99.8" font-family="Times,serif" font-size="14.00">BlogListComponent</text>
</g>
<!-- BlogListComponent&#45;&gt;HomeModule -->
<g id="edge5" class="edge">
<title>BlogListComponent&#45;&gt;HomeModule</title>
<path fill="none" stroke="black" d="M951,-122.11C951,-122.11 951,-140.99 951,-140.99"/>
<polygon fill="black" stroke="black" points="947.5,-140.99 951,-150.99 954.5,-140.99 947.5,-140.99"/>
</g>
<!-- CarouselComponent -->
<g id="node6" class="node">
<title>CarouselComponent</title>
<polygon fill="#ffffb3" stroke="black" points="867.59,-122 736.41,-122 736.41,-86 867.59,-86 867.59,-122"/>
<text text-anchor="middle" x="802" y="-99.8" font-family="Times,serif" font-size="14.00">CarouselComponent</text>
</g>
<!-- CarouselComponent&#45;&gt;HomeModule -->
<g id="edge6" class="edge">
<title>CarouselComponent&#45;&gt;HomeModule</title>
<path fill="none" stroke="black" d="M802,-122.24C802,-137.57 802,-157 802,-157 802,-157 893.86,-157 893.86,-157"/>
<polygon fill="black" stroke="black" points="893.86,-160.5 903.86,-157 893.86,-153.5 893.86,-160.5"/>
</g>
<!-- ContactComponent -->
<g id="node7" class="node">
<title>ContactComponent</title>
<polygon fill="#ffffb3" stroke="black" points="718.38,-122 593.62,-122 593.62,-86 718.38,-86 718.38,-122"/>
<text text-anchor="middle" x="656" y="-99.8" font-family="Times,serif" font-size="14.00">ContactComponent</text>
</g>
<!-- ContactComponent&#45;&gt;HomeModule -->
<g id="edge7" class="edge">
<title>ContactComponent&#45;&gt;HomeModule</title>
<path fill="none" stroke="black" d="M656,-122.03C656,-139.06 656,-162 656,-162 656,-162 893.93,-162 893.93,-162"/>
<polygon fill="black" stroke="black" points="893.93,-165.5 903.93,-162 893.93,-158.5 893.93,-165.5"/>
</g>
<!-- HomeComponent -->
<g id="node8" class="node">
<title>HomeComponent</title>
<polygon fill="#ffffb3" stroke="black" points="575.55,-122 460.45,-122 460.45,-86 575.55,-86 575.55,-122"/>
<text text-anchor="middle" x="518" y="-99.8" font-family="Times,serif" font-size="14.00">HomeComponent</text>
</g>
<!-- HomeComponent&#45;&gt;HomeModule -->
<g id="edge8" class="edge">
<title>HomeComponent&#45;&gt;HomeModule</title>
<path fill="none" stroke="black" d="M518,-122.22C518,-140.83 518,-167 518,-167 518,-167 893.84,-167 893.84,-167"/>
<polygon fill="black" stroke="black" points="893.84,-170.5 903.84,-167 893.84,-163.5 893.84,-170.5"/>
</g>
<!-- LandingComponent -->
<g id="node9" class="node">
<title>LandingComponent</title>
<polygon fill="#ffffb3" stroke="black" points="441.99,-122 314.01,-122 314.01,-86 441.99,-86 441.99,-122"/>
<text text-anchor="middle" x="378" y="-99.8" font-family="Times,serif" font-size="14.00">LandingComponent</text>
</g>
<!-- LandingComponent&#45;&gt;HomeModule -->
<g id="edge9" class="edge">
<title>LandingComponent&#45;&gt;HomeModule</title>
<path fill="none" stroke="black" d="M378,-122.22C378,-142.37 378,-172 378,-172 378,-172 894.11,-172 894.11,-172"/>
<polygon fill="black" stroke="black" points="894.11,-175.5 904.11,-172 894.11,-168.5 894.11,-175.5"/>
</g>
<!-- PmsComponent -->
<g id="node10" class="node">
<title>PmsComponent</title>
<polygon fill="#ffffb3" stroke="black" points="295.95,-122 190.05,-122 190.05,-86 295.95,-86 295.95,-122"/>
<text text-anchor="middle" x="243" y="-99.8" font-family="Times,serif" font-size="14.00">PmsComponent</text>
</g>
<!-- PmsComponent&#45;&gt;HomeModule -->
<g id="edge10" class="edge">
<title>PmsComponent&#45;&gt;HomeModule</title>
<path fill="none" stroke="black" d="M243,-122.04C243,-143.66 243,-177 243,-177 243,-177 894,-177 894,-177"/>
<polygon fill="black" stroke="black" points="894,-180.5 904,-177 894,-173.5 894,-180.5"/>
</g>
<!-- ReservationComponent -->
<g id="node11" class="node">
<title>ReservationComponent</title>
<polygon fill="#ffffb3" stroke="black" points="172.2,-122 23.8,-122 23.8,-86 172.2,-86 172.2,-122"/>
<text text-anchor="middle" x="98" y="-99.8" font-family="Times,serif" font-size="14.00">ReservationComponent</text>
</g>
<!-- ReservationComponent&#45;&gt;HomeModule -->
<g id="edge11" class="edge">
<title>ReservationComponent&#45;&gt;HomeModule</title>
<path fill="none" stroke="black" d="M98,-122.09C98,-145.13 98,-182 98,-182 98,-182 894.23,-182 894.23,-182"/>
<polygon fill="black" stroke="black" points="894.23,-185.5 904.23,-182 894.23,-178.5 894.23,-185.5"/>
</g>
<!-- HomeRoutingModule -->
<g id="node13" class="node">
<title>HomeRoutingModule</title>
<polygon fill="#8dd3c7" stroke="black" points="1880.38,-122 1877.38,-126 1856.38,-126 1853.38,-122 1741.62,-122 1741.62,-86 1880.38,-86 1880.38,-122"/>
<text text-anchor="middle" x="1811" y="-99.8" font-family="Times,serif" font-size="14.00">HomeRoutingModule</text>
</g>
<!-- HomeRoutingModule&#45;&gt;HomeModule -->
<g id="edge12" class="edge">
<title>HomeRoutingModule&#45;&gt;HomeModule</title>
<path fill="none" stroke="black" d="M1811,-122.09C1811,-145.13 1811,-182 1811,-182 1811,-182 1007.85,-182 1007.85,-182"/>
<polygon fill="black" stroke="black" points="1007.85,-178.5 997.85,-182 1007.85,-185.5 1007.85,-178.5"/>
</g>
<!-- SharedModule -->
<g id="node14" class="node">
<title>SharedModule</title>
<polygon fill="#8dd3c7" stroke="black" points="1723.42,-122 1720.42,-126 1699.42,-126 1696.42,-122 1624.58,-122 1624.58,-86 1723.42,-86 1723.42,-122"/>
<text text-anchor="middle" x="1674" y="-99.8" font-family="Times,serif" font-size="14.00">SharedModule</text>
</g>
<!-- SharedModule&#45;&gt;HomeModule -->
<g id="edge13" class="edge">
<title>SharedModule&#45;&gt;HomeModule</title>
<path fill="none" stroke="black" d="M1674,-122.04C1674,-143.66 1674,-177 1674,-177 1674,-177 1007.88,-177 1007.88,-177"/>
<polygon fill="black" stroke="black" points="1007.88,-173.5 997.88,-177 1007.88,-180.5 1007.88,-173.5"/>
</g>
</g>
</svg>
