<?xml version="1.0" encoding="UTF-8" standalone="no"?>
<!DOCTYPE svg PUBLIC "-//W3C//DTD SVG 1.1//EN"
 "http://www.w3.org/Graphics/SVG/1.1/DTD/svg11.dtd">
<!-- Generated by graphviz version 2.47.0 (20210316.0004)
 -->
<!-- Title: dependencies Pages: 1 -->
<svg width="3249pt" height="211pt"
 viewBox="0.00 0.00 3249.00 211.00" xmlns="http://www.w3.org/2000/svg" xmlns:xlink="http://www.w3.org/1999/xlink">
<g id="graph0" class="graph" transform="scale(1 1) rotate(0) translate(4 207)">
<title>dependencies</title>
<polygon fill="white" stroke="transparent" points="-4,4 -4,-207 3245,-207 3245,4 -4,4"/>
<text text-anchor="start" x="1599.51" y="-42.4" font-family="Times-12" font-weight="bold" font-size="14.00">Legend</text>
<polygon fill="#ffffb3" stroke="transparent" points="1386.5,-10 1386.5,-30 1406.5,-30 1406.5,-10 1386.5,-10"/>
<text text-anchor="start" x="1410.13" y="-15.4" font-family="Times-12" font-size="14.00"> &#160;Declarations</text>
<polygon fill="#8dd3c7" stroke="transparent" points="1499.5,-10 1499.5,-30 1519.5,-30 1519.5,-10 1499.5,-10"/>
<text text-anchor="start" x="1523.23" y="-15.4" font-family="Times-12" font-size="14.00"> &#160;Module</text>
<polygon fill="#80b1d3" stroke="transparent" points="1585.5,-10 1585.5,-30 1605.5,-30 1605.5,-10 1585.5,-10"/>
<text text-anchor="start" x="1609.28" y="-15.4" font-family="Times-12" font-size="14.00"> &#160;Bootstrap</text>
<polygon fill="#fdb462" stroke="transparent" points="1682.5,-10 1682.5,-30 1702.5,-30 1702.5,-10 1682.5,-10"/>
<text text-anchor="start" x="1706.17" y="-15.4" font-family="Times-12" font-size="14.00"> &#160;Providers</text>
<polygon fill="#fb8072" stroke="transparent" points="1778.5,-10 1778.5,-30 1798.5,-30 1798.5,-10 1778.5,-10"/>
<text text-anchor="start" x="1802.23" y="-15.4" font-family="Times-12" font-size="14.00"> &#160;Exports</text>
<g id="clust1" class="cluster">
<title>cluster_HomeModule</title>
<polygon fill="none" stroke="black" stroke-dasharray="1,5" points="8,-70 8,-195 3233,-195 3233,-70 8,-70"/>
</g>
<g id="clust2" class="cluster">
<title>cluster_HomeModule_declarations</title>
<polygon fill="none" stroke="black" points="1631,-78 1631,-130 3225,-130 3225,-78 1631,-78"/>
</g>
<g id="clust14" class="cluster">
<title>cluster_HomeModule_imports</title>
<polygon fill="none" stroke="black" points="16,-78 16,-130 1623,-130 1623,-78 16,-78"/>
</g>
<!-- LandingComponent -->
<g id="node1" class="node">
<title>LandingComponent</title>
<polygon fill="#ffffb3" stroke="black" points="3216.99,-122 3089.01,-122 3089.01,-86 3216.99,-86 3216.99,-122"/>
<text text-anchor="middle" x="3153" y="-99.8" font-family="Times,serif" font-size="14.00">LandingComponent</text>
</g>
<!-- HomeModule -->
<g id="node12" class="node">
<title>HomeModule</title>
<polygon fill="#8dd3c7" stroke="black" points="1751.76,-187 1748.76,-191 1727.76,-191 1724.76,-187 1658.24,-187 1658.24,-151 1751.76,-151 1751.76,-187"/>
<text text-anchor="middle" x="1705" y="-164.8" font-family="Times,serif" font-size="14.00">HomeModule</text>
</g>
<!-- LandingComponent&#45;&gt;HomeModule -->
<g id="edge1" class="edge">
<title>LandingComponent&#45;&gt;HomeModule</title>
<path fill="none" stroke="black" d="M3153,-122.15C3153,-145.76 3153,-184 3153,-184 3153,-184 1761.95,-184 1761.95,-184"/>
<polygon fill="black" stroke="black" points="1761.95,-180.5 1751.95,-184 1761.95,-187.5 1761.95,-180.5"/>
</g>
<!-- HomeComponent -->
<g id="node2" class="node">
<title>HomeComponent</title>
<polygon fill="#ffffb3" stroke="black" points="3070.55,-122 2955.45,-122 2955.45,-86 3070.55,-86 3070.55,-122"/>
<text text-anchor="middle" x="3013" y="-99.8" font-family="Times,serif" font-size="14.00">HomeComponent</text>
</g>
<!-- HomeComponent&#45;&gt;HomeModule -->
<g id="edge2" class="edge">
<title>HomeComponent&#45;&gt;HomeModule</title>
<path fill="none" stroke="black" d="M3013,-122.25C3013,-145.02 3013,-181 3013,-181 3013,-181 1761.94,-181 1761.94,-181"/>
<polygon fill="black" stroke="black" points="1761.94,-177.5 1751.94,-181 1761.94,-184.5 1761.94,-177.5"/>
</g>
<!-- ContactComponent -->
<g id="node3" class="node">
<title>ContactComponent</title>
<polygon fill="#ffffb3" stroke="black" points="2937.38,-122 2812.62,-122 2812.62,-86 2937.38,-86 2937.38,-122"/>
<text text-anchor="middle" x="2875" y="-99.8" font-family="Times,serif" font-size="14.00">ContactComponent</text>
</g>
<!-- ContactComponent&#45;&gt;HomeModule -->
<g id="edge3" class="edge">
<title>ContactComponent&#45;&gt;HomeModule</title>
<path fill="none" stroke="black" d="M2875,-122.29C2875,-144.21 2875,-178 2875,-178 2875,-178 1761.95,-178 1761.95,-178"/>
<polygon fill="black" stroke="black" points="1761.95,-174.5 1751.95,-178 1761.95,-181.5 1761.95,-174.5"/>
</g>
<!-- AboutComponent -->
<g id="node4" class="node">
<title>AboutComponent</title>
<polygon fill="#ffffb3" stroke="black" points="2794.33,-122 2677.67,-122 2677.67,-86 2794.33,-86 2794.33,-122"/>
<text text-anchor="middle" x="2736" y="-99.8" font-family="Times,serif" font-size="14.00">AboutComponent</text>
</g>
<!-- AboutComponent&#45;&gt;HomeModule -->
<g id="edge4" class="edge">
<title>AboutComponent&#45;&gt;HomeModule</title>
<path fill="none" stroke="black" d="M2736,-122.03C2736,-142.77 2736,-174 2736,-174 2736,-174 1761.98,-174 1761.98,-174"/>
<polygon fill="black" stroke="black" points="1761.98,-170.5 1751.98,-174 1761.98,-177.5 1761.98,-170.5"/>
</g>
<!-- BlogListComponent -->
<g id="node5" class="node">
<title>BlogListComponent</title>
<polygon fill="#ffffb3" stroke="black" points="2660.34,-122 2529.66,-122 2529.66,-86 2660.34,-86 2660.34,-122"/>
<text text-anchor="middle" x="2595" y="-99.8" font-family="Times,serif" font-size="14.00">BlogListComponent</text>
</g>
<!-- BlogListComponent&#45;&gt;HomeModule -->
<g id="edge5" class="edge">
<title>BlogListComponent&#45;&gt;HomeModule</title>
<path fill="none" stroke="black" d="M2595,-122.31C2595,-142.15 2595,-171 2595,-171 2595,-171 1761.91,-171 1761.91,-171"/>
<polygon fill="black" stroke="black" points="1761.91,-167.5 1751.91,-171 1761.91,-174.5 1761.91,-167.5"/>
</g>
<!-- BlogCreateComponent -->
<g id="node6" class="node">
<title>BlogCreateComponent</title>
<polygon fill="#ffffb3" stroke="black" points="2511.59,-122 2366.41,-122 2366.41,-86 2511.59,-86 2511.59,-122"/>
<text text-anchor="middle" x="2439" y="-99.8" font-family="Times,serif" font-size="14.00">BlogCreateComponent</text>
</g>
<!-- BlogCreateComponent&#45;&gt;HomeModule -->
<g id="edge6" class="edge">
<title>BlogCreateComponent&#45;&gt;HomeModule</title>
<path fill="none" stroke="black" d="M2439,-122.17C2439,-141.09 2439,-168 2439,-168 2439,-168 1762.03,-168 1762.03,-168"/>
<polygon fill="black" stroke="black" points="1762.03,-164.5 1752.03,-168 1762.03,-171.5 1762.03,-164.5"/>
</g>
<!-- BlogDetailComponent -->
<g id="node7" class="node">
<title>BlogDetailComponent</title>
<polygon fill="#ffffb3" stroke="black" points="2348.27,-122 2205.73,-122 2205.73,-86 2348.27,-86 2348.27,-122"/>
<text text-anchor="middle" x="2277" y="-99.8" font-family="Times,serif" font-size="14.00">BlogDetailComponent</text>
</g>
<!-- BlogDetailComponent&#45;&gt;HomeModule -->
<g id="edge7" class="edge">
<title>BlogDetailComponent&#45;&gt;HomeModule</title>
<path fill="none" stroke="black" d="M2277,-122.3C2277,-140.27 2277,-165 2277,-165 2277,-165 1761.81,-165 1761.81,-165"/>
<polygon fill="black" stroke="black" points="1761.81,-161.5 1751.81,-165 1761.81,-168.5 1761.81,-161.5"/>
</g>
<!-- BlogComponent -->
<g id="node8" class="node">
<title>BlogComponent</title>
<polygon fill="#ffffb3" stroke="black" points="2187.06,-122 2078.94,-122 2078.94,-86 2187.06,-86 2187.06,-122"/>
<text text-anchor="middle" x="2133" y="-99.8" font-family="Times,serif" font-size="14.00">BlogComponent</text>
</g>
<!-- BlogComponent&#45;&gt;HomeModule -->
<g id="edge8" class="edge">
<title>BlogComponent&#45;&gt;HomeModule</title>
<path fill="none" stroke="black" d="M2133,-122.04C2133,-138.73 2133,-161 2133,-161 2133,-161 1762.03,-161 1762.03,-161"/>
<polygon fill="black" stroke="black" points="1762.03,-157.5 1752.03,-161 1762.03,-164.5 1762.03,-157.5"/>
</g>
<!-- PmsComponent -->
<g id="node9" class="node">
<title>PmsComponent</title>
<polygon fill="#ffffb3" stroke="black" points="2060.95,-122 1955.05,-122 1955.05,-86 2060.95,-86 2060.95,-122"/>
<text text-anchor="middle" x="2008" y="-99.8" font-family="Times,serif" font-size="14.00">PmsComponent</text>
</g>
<!-- PmsComponent&#45;&gt;HomeModule -->
<g id="edge9" class="edge">
<title>PmsComponent&#45;&gt;HomeModule</title>
<path fill="none" stroke="black" d="M2008,-122.28C2008,-137.95 2008,-158 2008,-158 2008,-158 1762.01,-158 1762.01,-158"/>
<polygon fill="black" stroke="black" points="1762.01,-154.5 1752.01,-158 1762.01,-161.5 1762.01,-154.5"/>
</g>
<!-- ReservationComponent -->
<g id="node10" class="node">
<title>ReservationComponent</title>
<polygon fill="#ffffb3" stroke="black" points="1937.2,-122 1788.8,-122 1788.8,-86 1937.2,-86 1937.2,-122"/>
<text text-anchor="middle" x="1863" y="-99.8" font-family="Times,serif" font-size="14.00">ReservationComponent</text>
</g>
<!-- ReservationComponent&#45;&gt;HomeModule -->
<g id="edge10" class="edge">
<title>ReservationComponent&#45;&gt;HomeModule</title>
<path fill="none" stroke="black" d="M1863,-122.12C1863,-136.78 1863,-155 1863,-155 1863,-155 1761.98,-155 1761.98,-155"/>
<polygon fill="black" stroke="black" points="1761.98,-151.5 1751.98,-155 1761.98,-158.5 1761.98,-151.5"/>
</g>
<!-- CarouselComponent -->
<g id="node11" class="node">
<title>CarouselComponent</title>
<polygon fill="#ffffb3" stroke="black" points="1770.59,-122 1639.41,-122 1639.41,-86 1770.59,-86 1770.59,-122"/>
<text text-anchor="middle" x="1705" y="-99.8" font-family="Times,serif" font-size="14.00">CarouselComponent</text>
</g>
<!-- CarouselComponent&#45;&gt;HomeModule -->
<g id="edge11" class="edge">
<title>CarouselComponent&#45;&gt;HomeModule</title>
<path fill="none" stroke="black" d="M1705,-122.11C1705,-122.11 1705,-140.99 1705,-140.99"/>
<polygon fill="black" stroke="black" points="1701.5,-140.99 1705,-150.99 1708.5,-140.99 1701.5,-140.99"/>
</g>
<!-- CommonModule -->
<g id="node13" class="node">
<title>CommonModule</title>
<polygon fill="#8dd3c7" stroke="black" points="1614.67,-122 1611.67,-126 1590.67,-126 1587.67,-122 1503.33,-122 1503.33,-86 1614.67,-86 1614.67,-122"/>
<text text-anchor="middle" x="1559" y="-99.8" font-family="Times,serif" font-size="14.00">CommonModule</text>
</g>
<!-- CommonModule&#45;&gt;HomeModule -->
<g id="edge12" class="edge">
<title>CommonModule&#45;&gt;HomeModule</title>
<path fill="none" stroke="black" d="M1559,-122.12C1559,-136.78 1559,-155 1559,-155 1559,-155 1648,-155 1648,-155"/>
<polygon fill="black" stroke="black" points="1648,-158.5 1658,-155 1648,-151.5 1648,-158.5"/>
</g>
<!-- HomeRoutingModule -->
<g id="node14" class="node">
<title>HomeRoutingModule</title>
<polygon fill="#8dd3c7" stroke="black" points="1485.38,-122 1482.38,-126 1461.38,-126 1458.38,-122 1346.62,-122 1346.62,-86 1485.38,-86 1485.38,-122"/>
<text text-anchor="middle" x="1416" y="-99.8" font-family="Times,serif" font-size="14.00">HomeRoutingModule</text>
</g>
<!-- HomeRoutingModule&#45;&gt;HomeModule -->
<g id="edge13" class="edge">
<title>HomeRoutingModule&#45;&gt;HomeModule</title>
<path fill="none" stroke="black" d="M1416,-122.28C1416,-137.95 1416,-158 1416,-158 1416,-158 1647.92,-158 1647.92,-158"/>
<polygon fill="black" stroke="black" points="1647.92,-161.5 1657.92,-158 1647.92,-154.5 1647.92,-161.5"/>
</g>
<!-- RouterModule -->
<g id="node15" class="node">
<title>RouterModule</title>
<polygon fill="#8dd3c7" stroke="black" points="1328.65,-122 1325.65,-126 1304.65,-126 1301.65,-122 1231.35,-122 1231.35,-86 1328.65,-86 1328.65,-122"/>
<text text-anchor="middle" x="1280" y="-99.8" font-family="Times,serif" font-size="14.00">RouterModule</text>
</g>
<!-- RouterModule&#45;&gt;HomeModule -->
<g id="edge14" class="edge">
<title>RouterModule&#45;&gt;HomeModule</title>
<path fill="none" stroke="black" d="M1280,-122.04C1280,-138.73 1280,-161 1280,-161 1280,-161 1647.89,-161 1647.89,-161"/>
<polygon fill="black" stroke="black" points="1647.89,-164.5 1657.89,-161 1647.89,-157.5 1647.89,-164.5"/>
</g>
<!-- ReactiveFormsModule -->
<g id="node16" class="node">
<title>ReactiveFormsModule</title>
<polygon fill="#8dd3c7" stroke="black" points="1213.3,-122 1210.3,-126 1189.3,-126 1186.3,-122 1068.7,-122 1068.7,-86 1213.3,-86 1213.3,-122"/>
<text text-anchor="middle" x="1141" y="-99.8" font-family="Times,serif" font-size="14.00">ReactiveFormsModule</text>
</g>
<!-- ReactiveFormsModule&#45;&gt;HomeModule -->
<g id="edge15" class="edge">
<title>ReactiveFormsModule&#45;&gt;HomeModule</title>
<path fill="none" stroke="black" d="M1141,-122.3C1141,-140.27 1141,-165 1141,-165 1141,-165 1647.88,-165 1647.88,-165"/>
<polygon fill="black" stroke="black" points="1647.88,-168.5 1657.88,-165 1647.88,-161.5 1647.88,-168.5"/>
</g>
<!-- CKEditorModule -->
<g id="node17" class="node">
<title>CKEditorModule</title>
<polygon fill="#8dd3c7" stroke="black" points="1050.99,-122 1047.99,-126 1026.99,-126 1023.99,-122 937.01,-122 937.01,-86 1050.99,-86 1050.99,-122"/>
<text text-anchor="middle" x="994" y="-99.8" font-family="Times,serif" font-size="14.00">CKEditorModule</text>
</g>
<!-- CKEditorModule&#45;&gt;HomeModule -->
<g id="edge16" class="edge">
<title>CKEditorModule&#45;&gt;HomeModule</title>
<path fill="none" stroke="black" d="M994,-122.17C994,-141.09 994,-168 994,-168 994,-168 1648.07,-168 1648.07,-168"/>
<polygon fill="black" stroke="black" points="1648.07,-171.5 1658.07,-168 1648.07,-164.5 1648.07,-171.5"/>
</g>
<!-- StoreModule.forFeature(args) -->
<g id="node18" class="node">
<title>StoreModule.forFeature(args)</title>
<polygon fill="#8dd3c7" stroke="black" points="918.54,-122 915.54,-126 894.54,-126 891.54,-122 735.46,-122 735.46,-86 918.54,-86 918.54,-122"/>
<text text-anchor="middle" x="827" y="-99.8" font-family="Times,serif" font-size="14.00">StoreModule.forFeature(args)</text>
</g>
<!-- StoreModule.forFeature(args)&#45;&gt;HomeModule -->
<g id="edge17" class="edge">
<title>StoreModule.forFeature(args)&#45;&gt;HomeModule</title>
<path fill="none" stroke="black" d="M827,-122.31C827,-142.15 827,-171 827,-171 827,-171 1648.11,-171 1648.11,-171"/>
<polygon fill="black" stroke="black" points="1648.11,-174.5 1658.11,-171 1648.11,-167.5 1648.11,-174.5"/>
</g>
<!-- EffectsModule.forFeature(args) -->
<g id="node19" class="node">
<title>EffectsModule.forFeature(args)</title>
<polygon fill="#8dd3c7" stroke="black" points="716.63,-122 713.63,-126 692.63,-126 689.63,-122 523.37,-122 523.37,-86 716.63,-86 716.63,-122"/>
<text text-anchor="middle" x="620" y="-99.8" font-family="Times,serif" font-size="14.00">EffectsModule.forFeature(args)</text>
</g>
<!-- EffectsModule.forFeature(args)&#45;&gt;HomeModule -->
<g id="edge18" class="edge">
<title>EffectsModule.forFeature(args)&#45;&gt;HomeModule</title>
<path fill="none" stroke="black" d="M620,-122.03C620,-142.77 620,-174 620,-174 620,-174 1648.03,-174 1648.03,-174"/>
<polygon fill="black" stroke="black" points="1648.03,-177.5 1658.03,-174 1648.03,-170.5 1648.03,-177.5"/>
</g>
<!-- FormsModule -->
<g id="node20" class="node">
<title>FormsModule</title>
<polygon fill="#8dd3c7" stroke="black" points="505.83,-122 502.83,-126 481.83,-126 478.83,-122 410.17,-122 410.17,-86 505.83,-86 505.83,-122"/>
<text text-anchor="middle" x="458" y="-99.8" font-family="Times,serif" font-size="14.00">FormsModule</text>
</g>
<!-- FormsModule&#45;&gt;HomeModule -->
<g id="edge19" class="edge">
<title>FormsModule&#45;&gt;HomeModule</title>
<path fill="none" stroke="black" d="M458,-122.29C458,-144.21 458,-178 458,-178 458,-178 1648.02,-178 1648.02,-178"/>
<polygon fill="black" stroke="black" points="1648.02,-181.5 1658.02,-178 1648.02,-174.5 1648.02,-181.5"/>
</g>
<!-- SharedModule -->
<g id="node21" class="node">
<title>SharedModule</title>
<polygon fill="#8dd3c7" stroke="black" points="392.42,-122 389.42,-126 368.42,-126 365.42,-122 293.58,-122 293.58,-86 392.42,-86 392.42,-122"/>
<text text-anchor="middle" x="343" y="-99.8" font-family="Times,serif" font-size="14.00">SharedModule</text>
</g>
<!-- SharedModule&#45;&gt;HomeModule -->
<g id="edge20" class="edge">
<title>SharedModule&#45;&gt;HomeModule</title>
<path fill="none" stroke="black" d="M343,-122.25C343,-145.02 343,-181 343,-181 343,-181 1648.12,-181 1648.12,-181"/>
<polygon fill="black" stroke="black" points="1648.12,-184.5 1658.12,-181 1648.12,-177.5 1648.12,-184.5"/>
</g>
<!-- NgxSkeletonLoaderModule.forRoot(args) -->
<g id="node22" class="node">
<title>NgxSkeletonLoaderModule.forRoot(args)</title>
<polygon fill="#8dd3c7" stroke="black" points="275.98,-122 272.98,-126 251.98,-126 248.98,-122 24.02,-122 24.02,-86 275.98,-86 275.98,-122"/>
<text text-anchor="middle" x="150" y="-99.8" font-family="Times,serif" font-size="14.00">NgxSkeletonLoaderModule.forRoot(args)</text>
</g>
<!-- NgxSkeletonLoaderModule.forRoot(args)&#45;&gt;HomeModule -->
<g id="edge21" class="edge">
<title>NgxSkeletonLoaderModule.forRoot(args)&#45;&gt;HomeModule</title>
<path fill="none" stroke="black" d="M150,-122.15C150,-145.76 150,-184 150,-184 150,-184 1648.04,-184 1648.04,-184"/>
<polygon fill="black" stroke="black" points="1648.04,-187.5 1658.04,-184 1648.04,-180.5 1648.04,-187.5"/>
</g>
</g>
</svg>
