<?xml version="1.0" encoding="UTF-8" standalone="no"?>
<!DOCTYPE svg PUBLIC "-//W3C//DTD SVG 1.1//EN"
 "http://www.w3.org/Graphics/SVG/1.1/DTD/svg11.dtd">
<!-- Generated by graphviz version 2.47.0 (20210316.0004)
 -->
<!-- Title: dependencies Pages: 1 -->
<svg width="2814pt" height="284pt"
 viewBox="0.00 0.00 2814.00 284.00" xmlns="http://www.w3.org/2000/svg" xmlns:xlink="http://www.w3.org/1999/xlink">
<g id="graph0" class="graph" transform="scale(1 1) rotate(0) translate(4 280)">
<title>dependencies</title>
<polygon fill="white" stroke="transparent" points="-4,4 -4,-280 2810,-280 2810,4 -4,4"/>
<text text-anchor="start" x="1382.01" y="-42.4" font-family="Times-12" font-weight="bold" font-size="14.00">Legend</text>
<polygon fill="#ffffb3" stroke="transparent" points="1169,-10 1169,-30 1189,-30 1189,-10 1169,-10"/>
<text text-anchor="start" x="1192.63" y="-15.4" font-family="Times-12" font-size="14.00"> &#160;Declarations</text>
<polygon fill="#8dd3c7" stroke="transparent" points="1282,-10 1282,-30 1302,-30 1302,-10 1282,-10"/>
<text text-anchor="start" x="1305.73" y="-15.4" font-family="Times-12" font-size="14.00"> &#160;Module</text>
<polygon fill="#80b1d3" stroke="transparent" points="1368,-10 1368,-30 1388,-30 1388,-10 1368,-10"/>
<text text-anchor="start" x="1391.78" y="-15.4" font-family="Times-12" font-size="14.00"> &#160;Bootstrap</text>
<polygon fill="#fdb462" stroke="transparent" points="1465,-10 1465,-30 1485,-30 1485,-10 1465,-10"/>
<text text-anchor="start" x="1488.67" y="-15.4" font-family="Times-12" font-size="14.00"> &#160;Providers</text>
<polygon fill="#fb8072" stroke="transparent" points="1561,-10 1561,-30 1581,-30 1581,-10 1561,-10"/>
<text text-anchor="start" x="1584.73" y="-15.4" font-family="Times-12" font-size="14.00"> &#160;Exports</text>
<g id="clust1" class="cluster">
<title>cluster_AppModule</title>
<polygon fill="none" stroke="black" stroke-dasharray="1,5" points="8,-70 8,-268 2798,-268 2798,-70 8,-70"/>
</g>
<g id="clust2" class="cluster">
<title>cluster_AppModule_declarations</title>
<polygon fill="none" stroke="black" points="2668,-78 2668,-130 2790,-130 2790,-78 2668,-78"/>
</g>
<g id="clust4" class="cluster">
<title>cluster_AppModule_imports</title>
<polygon fill="none" stroke="black" points="1394,-78 1394,-130 2660,-130 2660,-78 1394,-78"/>
</g>
<g id="clust6" class="cluster">
<title>cluster_AppModule_bootstrap</title>
<polygon fill="none" stroke="black" points="1951,-208 1951,-260 2075,-260 2075,-208 1951,-208"/>
</g>
<g id="clust7" class="cluster">
<title>cluster_AppModule_providers</title>
<polygon fill="none" stroke="black" points="16,-78 16,-130 1386,-130 1386,-78 16,-78"/>
</g>
<!-- AppComponent -->
<g id="node1" class="node">
<title>AppComponent</title>
<polygon fill="#ffffb3" stroke="black" points="2781.94,-122 2676.06,-122 2676.06,-86 2781.94,-86 2781.94,-122"/>
<text text-anchor="middle" x="2729" y="-99.8" font-family="Times,serif" font-size="14.00">AppComponent</text>
</g>
<!-- AppModule -->
<g id="node2" class="node">
<title>AppModule</title>
<polygon fill="#8dd3c7" stroke="black" points="2054.66,-187 2051.66,-191 2030.66,-191 2027.66,-187 1971.34,-187 1971.34,-151 2054.66,-151 2054.66,-187"/>
<text text-anchor="middle" x="2013" y="-164.8" font-family="Times,serif" font-size="14.00">AppModule</text>
</g>
<!-- AppComponent&#45;&gt;AppModule -->
<g id="edge1" class="edge">
<title>AppComponent&#45;&gt;AppModule</title>
<path fill="none" stroke="black" d="M2729,-122.25C2729,-145.02 2729,-181 2729,-181 2729,-181 2064.85,-181 2064.85,-181"/>
<polygon fill="black" stroke="black" points="2064.85,-177.5 2054.85,-181 2064.85,-184.5 2064.85,-177.5"/>
</g>
<!-- AppComponent  -->
<g id="node11" class="node">
<title>AppComponent </title>
<polygon fill="#80b1d3" stroke="black" points="2067.44,-252 1958.56,-252 1958.56,-216 2067.44,-216 2067.44,-252"/>
<text text-anchor="middle" x="2013" y="-229.8" font-family="Times,serif" font-size="14.00">AppComponent </text>
</g>
<!-- AppModule&#45;&gt;AppComponent  -->
<g id="edge10" class="edge">
<title>AppModule&#45;&gt;AppComponent </title>
<path fill="none" stroke="black" stroke-dasharray="1,5" d="M2013,-187.11C2013,-187.11 2013,-205.99 2013,-205.99"/>
<polygon fill="black" stroke="black" points="2009.5,-205.99 2013,-215.99 2016.5,-205.99 2009.5,-205.99"/>
</g>
<!-- BrowserModule -->
<g id="node3" class="node">
<title>BrowserModule</title>
<polygon fill="#8dd3c7" stroke="black" points="2652.47,-122 2649.47,-126 2628.47,-126 2625.47,-122 2545.53,-122 2545.53,-86 2652.47,-86 2652.47,-122"/>
<text text-anchor="middle" x="2599" y="-99.8" font-family="Times,serif" font-size="14.00">BrowserModule</text>
</g>
<!-- BrowserModule&#45;&gt;AppModule -->
<g id="edge2" class="edge">
<title>BrowserModule&#45;&gt;AppModule</title>
<path fill="none" stroke="black" d="M2599,-122.28C2599,-143.32 2599,-175 2599,-175 2599,-175 2064.67,-175 2064.67,-175"/>
<polygon fill="black" stroke="black" points="2064.67,-171.5 2054.67,-175 2064.67,-178.5 2064.67,-171.5"/>
</g>
<!-- AppRoutingModule -->
<g id="node4" class="node">
<title>AppRoutingModule</title>
<polygon fill="#8dd3c7" stroke="black" points="2527.27,-122 2524.27,-126 2503.27,-126 2500.27,-122 2398.73,-122 2398.73,-86 2527.27,-86 2527.27,-122"/>
<text text-anchor="middle" x="2463" y="-99.8" font-family="Times,serif" font-size="14.00">AppRoutingModule</text>
</g>
<!-- AppRoutingModule&#45;&gt;AppModule -->
<g id="edge3" class="edge">
<title>AppRoutingModule&#45;&gt;AppModule</title>
<path fill="none" stroke="black" d="M2463,-122.11C2463,-141.34 2463,-169 2463,-169 2463,-169 2064.93,-169 2064.93,-169"/>
<polygon fill="black" stroke="black" points="2064.93,-165.5 2054.93,-169 2064.93,-172.5 2064.93,-165.5"/>
</g>
<!-- HttpClientModule -->
<g id="node5" class="node">
<title>HttpClientModule</title>
<polygon fill="#8dd3c7" stroke="black" points="2380.16,-122 2377.16,-126 2356.16,-126 2353.16,-122 2261.84,-122 2261.84,-86 2380.16,-86 2380.16,-122"/>
<text text-anchor="middle" x="2321" y="-99.8" font-family="Times,serif" font-size="14.00">HttpClientModule</text>
</g>
<!-- HttpClientModule&#45;&gt;AppModule -->
<g id="edge4" class="edge">
<title>HttpClientModule&#45;&gt;AppModule</title>
<path fill="none" stroke="black" d="M2321,-122.02C2321,-139.37 2321,-163 2321,-163 2321,-163 2064.86,-163 2064.86,-163"/>
<polygon fill="black" stroke="black" points="2064.86,-159.5 2054.86,-163 2064.86,-166.5 2064.86,-159.5"/>
</g>
<!-- AuthModule -->
<g id="node6" class="node">
<title>AuthModule</title>
<polygon fill="#8dd3c7" stroke="black" points="2243.55,-122 2240.55,-126 2219.55,-126 2216.55,-122 2156.45,-122 2156.45,-86 2243.55,-86 2243.55,-122"/>
<text text-anchor="middle" x="2200" y="-99.8" font-family="Times,serif" font-size="14.00">AuthModule</text>
</g>
<!-- AuthModule&#45;&gt;AppModule -->
<g id="edge5" class="edge">
<title>AuthModule&#45;&gt;AppModule</title>
<path fill="none" stroke="black" d="M2200,-122.24C2200,-137.57 2200,-157 2200,-157 2200,-157 2064.97,-157 2064.97,-157"/>
<polygon fill="black" stroke="black" points="2064.97,-153.5 2054.97,-157 2064.97,-160.5 2064.97,-153.5"/>
</g>
<!-- SharedModule -->
<g id="node7" class="node">
<title>SharedModule</title>
<polygon fill="#8dd3c7" stroke="black" points="2138.42,-122 2135.42,-126 2114.42,-126 2111.42,-122 2039.58,-122 2039.58,-86 2138.42,-86 2138.42,-122"/>
<text text-anchor="middle" x="2089" y="-99.8" font-family="Times,serif" font-size="14.00">SharedModule</text>
</g>
<!-- SharedModule&#45;&gt;AppModule -->
<g id="edge6" class="edge">
<title>SharedModule&#45;&gt;AppModule</title>
<path fill="none" stroke="black" d="M2047.31,-122.11C2047.31,-122.11 2047.31,-140.99 2047.31,-140.99"/>
<polygon fill="black" stroke="black" points="2043.81,-140.99 2047.31,-150.99 2050.81,-140.99 2043.81,-140.99"/>
</g>
<!-- StoreModule.forRoot(args) -->
<g id="node8" class="node">
<title>StoreModule.forRoot(args)</title>
<polygon fill="#8dd3c7" stroke="black" points="2021.29,-122 2018.29,-126 1997.29,-126 1994.29,-122 1852.71,-122 1852.71,-86 2021.29,-86 2021.29,-122"/>
<text text-anchor="middle" x="1937" y="-99.8" font-family="Times,serif" font-size="14.00">StoreModule.forRoot(args)</text>
</g>
<!-- StoreModule.forRoot(args)&#45;&gt;AppModule -->
<g id="edge7" class="edge">
<title>StoreModule.forRoot(args)&#45;&gt;AppModule</title>
<path fill="none" stroke="black" d="M1996.28,-122.11C1996.28,-122.11 1996.28,-140.99 1996.28,-140.99"/>
<polygon fill="black" stroke="black" points="1992.78,-140.99 1996.28,-150.99 1999.78,-140.99 1992.78,-140.99"/>
</g>
<!-- EffectsModule.forRoot(args) -->
<g id="node9" class="node">
<title>EffectsModule.forRoot(args)</title>
<polygon fill="#8dd3c7" stroke="black" points="1834.38,-122 1831.38,-126 1810.38,-126 1807.38,-122 1655.62,-122 1655.62,-86 1834.38,-86 1834.38,-122"/>
<text text-anchor="middle" x="1745" y="-99.8" font-family="Times,serif" font-size="14.00">EffectsModule.forRoot(args)</text>
</g>
<!-- EffectsModule.forRoot(args)&#45;&gt;AppModule -->
<g id="edge8" class="edge">
<title>EffectsModule.forRoot(args)&#45;&gt;AppModule</title>
<path fill="none" stroke="black" d="M1745,-122.24C1745,-137.57 1745,-157 1745,-157 1745,-157 1961.12,-157 1961.12,-157"/>
<polygon fill="black" stroke="black" points="1961.13,-160.5 1971.12,-157 1961.12,-153.5 1961.13,-160.5"/>
</g>
<!-- StoreDevtoolsModule.instrument(args) -->
<g id="node10" class="node">
<title>StoreDevtoolsModule.instrument(args)</title>
<polygon fill="#8dd3c7" stroke="black" points="1637.67,-122 1634.67,-126 1613.67,-126 1610.67,-122 1402.33,-122 1402.33,-86 1637.67,-86 1637.67,-122"/>
<text text-anchor="middle" x="1520" y="-99.8" font-family="Times,serif" font-size="14.00">StoreDevtoolsModule.instrument(args)</text>
</g>
<!-- StoreDevtoolsModule.instrument(args)&#45;&gt;AppModule -->
<g id="edge9" class="edge">
<title>StoreDevtoolsModule.instrument(args)&#45;&gt;AppModule</title>
<path fill="none" stroke="black" d="M1520,-122.02C1520,-139.37 1520,-163 1520,-163 1520,-163 1960.97,-163 1960.97,-163"/>
<polygon fill="black" stroke="black" points="1960.97,-166.5 1970.97,-163 1960.97,-159.5 1960.97,-166.5"/>
</g>
<!-- CookieService -->
<g id="node12" class="node">
<title>CookieService</title>
<ellipse fill="#fdb462" stroke="black" cx="1310" cy="-104" rx="67.78" ry="18"/>
<text text-anchor="middle" x="1310" y="-99.8" font-family="Times,serif" font-size="14.00">CookieService</text>
</g>
<!-- CookieService&#45;&gt;AppModule -->
<g id="edge11" class="edge">
<title>CookieService&#45;&gt;AppModule</title>
<path fill="none" stroke="black" d="M1310,-122.11C1310,-141.34 1310,-169 1310,-169 1310,-169 1961.13,-169 1961.13,-169"/>
<polygon fill="black" stroke="black" points="1961.13,-172.5 1971.13,-169 1961.13,-165.5 1961.13,-172.5"/>
</g>
<!-- { provide: HTTP_INTERCEPTORS, useClass: AuthInterceptor, multi: &#160;} -->
<g id="node13" class="node">
<title>{ provide: HTTP_INTERCEPTORS, useClass: AuthInterceptor, multi: &#160;}</title>
<ellipse fill="#fdb462" stroke="black" cx="929" cy="-104" rx="295.43" ry="18"/>
<text text-anchor="middle" x="929" y="-99.8" font-family="Times,serif" font-size="14.00">{ provide: HTTP_INTERCEPTORS, useClass: AuthInterceptor, multi: &#160;}</text>
</g>
<!-- { provide: HTTP_INTERCEPTORS, useClass: AuthInterceptor, multi: &#160;}&#45;&gt;AppModule -->
<g id="edge12" class="edge">
<title>{ provide: HTTP_INTERCEPTORS, useClass: AuthInterceptor, multi: &#160;}&#45;&gt;AppModule</title>
<path fill="none" stroke="black" d="M929,-122.28C929,-143.32 929,-175 929,-175 929,-175 1961.17,-175 1961.17,-175"/>
<polygon fill="black" stroke="black" points="1961.17,-178.5 1971.17,-175 1961.17,-171.5 1961.17,-178.5"/>
</g>
<!-- { provide: HTTP_INTERCEPTORS, useClass: ErrorInterceptor, multi: &#160;} -->
<g id="node14" class="node">
<title>{ provide: HTTP_INTERCEPTORS, useClass: ErrorInterceptor, multi: &#160;}</title>
<ellipse fill="#fdb462" stroke="black" cx="320" cy="-104" rx="296.05" ry="18"/>
<text text-anchor="middle" x="320" y="-99.8" font-family="Times,serif" font-size="14.00">{ provide: HTTP_INTERCEPTORS, useClass: ErrorInterceptor, multi: &#160;}</text>
</g>
<!-- { provide: HTTP_INTERCEPTORS, useClass: ErrorInterceptor, multi: &#160;}&#45;&gt;AppModule -->
<g id="edge13" class="edge">
<title>{ provide: HTTP_INTERCEPTORS, useClass: ErrorInterceptor, multi: &#160;}&#45;&gt;AppModule</title>
<path fill="none" stroke="black" d="M320,-122.25C320,-145.02 320,-181 320,-181 320,-181 1961.15,-181 1961.15,-181"/>
<polygon fill="black" stroke="black" points="1961.15,-184.5 1971.15,-181 1961.15,-177.5 1961.15,-184.5"/>
</g>
</g>
</svg>
